<svg width="27" height="31" viewBox="0 0 27 31" fill="none" xmlns="http://www.w3.org/2000/svg">
<path d="M7.6324 20.4112H23.5109C25.3114 20.4112 26.7802 18.8311 26.7802 16.8943V9.70765C26.7802 9.70128 26.7802 9.68853 26.7802 9.68216C26.7802 9.66305 26.7802 9.65031 26.7802 9.63119C26.7802 9.61845 26.7802 9.60571 26.7743 9.59297C26.7743 9.58022 26.7684 9.56111 26.7684 9.54837C26.7684 9.53563 26.7624 9.52288 26.7624 9.51014C26.7565 9.4974 26.7565 9.48466 26.7506 9.46554C26.7447 9.4528 26.7447 9.44006 26.7388 9.42732C26.7328 9.41457 26.7328 9.40183 26.7269 9.38909C26.721 9.37635 26.7151 9.3636 26.7091 9.34449C26.7032 9.33175 26.6973 9.31901 26.6914 9.31264C26.6855 9.29989 26.6795 9.28715 26.6736 9.27441C26.6677 9.26167 26.6618 9.25529 26.6558 9.24255C26.6499 9.22981 26.6381 9.21707 26.6321 9.20433C26.6262 9.19158 26.6203 9.18521 26.6085 9.17247C26.6025 9.15973 26.5907 9.15336 26.5848 9.14061C26.5788 9.12787 26.567 9.1215 26.5611 9.10876C26.5552 9.09602 26.5433 9.08965 26.5374 9.08327C26.5255 9.07053 26.5196 9.06416 26.5078 9.05142C26.4959 9.04505 26.49 9.0323 26.4782 9.02593C26.4663 9.01956 26.4545 9.00682 26.4426 9.00045C26.4308 8.99408 26.4249 8.98771 26.413 8.98133C26.4012 8.97496 26.3893 8.96859 26.3775 8.95585C26.3656 8.94948 26.3538 8.94311 26.3419 8.93674C26.3301 8.93037 26.3183 8.924 26.3064 8.91762C26.2946 8.91125 26.2827 8.90488 26.2709 8.89851C26.259 8.89214 26.2472 8.89214 26.2353 8.88577C26.2235 8.8794 26.2057 8.87303 26.1939 8.87303C26.182 8.87303 26.1702 8.86666 26.1643 8.86666C26.1465 8.86028 26.1346 8.86028 26.1169 8.86028C26.111 8.86028 26.105 8.85391 26.0932 8.85391L5.96815 5.86584V2.84591C5.96815 2.81406 5.96815 2.7822 5.96222 2.75672C5.96222 2.75035 5.96222 2.74398 5.9563 2.73123C5.9563 2.71212 5.95038 2.69301 5.95038 2.67389C5.94445 2.65478 5.94446 2.64204 5.93853 2.62292C5.93853 2.61018 5.93261 2.60381 5.93261 2.59107C5.92669 2.57195 5.92076 2.55284 5.91484 2.53373C5.91484 2.52736 5.90892 2.51461 5.90892 2.50824C5.903 2.48913 5.89707 2.47639 5.88523 2.45727C5.87931 2.4509 5.87931 2.43816 5.87338 2.43179C5.86746 2.41905 5.86154 2.4063 5.84969 2.39356C5.84377 2.38082 5.83785 2.37445 5.83192 2.36171C5.826 2.34896 5.82008 2.34259 5.81416 2.32985C5.80823 2.31711 5.79639 2.30437 5.79047 2.29162C5.78454 2.28525 5.77862 2.27888 5.7727 2.27251C5.76085 2.25977 5.74901 2.24703 5.73716 2.23428C5.73124 2.22791 5.72532 2.22154 5.7194 2.21517C5.70755 2.20243 5.6957 2.18969 5.67794 2.17694C5.67201 2.17057 5.66017 2.1642 5.65425 2.15783C5.6424 2.14509 5.63056 2.13872 5.61871 2.12597C5.60094 2.11323 5.58318 2.10049 5.57133 2.09412C5.56541 2.08775 5.55948 2.08775 5.55356 2.08138C5.52987 2.06863 5.50026 2.05589 5.47657 2.04315L1.1116 0.0680917C0.702941 -0.116672 0.235054 0.0872052 0.0632979 0.526815C-0.108458 0.966424 0.0810659 1.46975 0.489726 1.65451L4.36312 3.41295V7.31209V7.93009V12.6702V16.907V22.2588C4.36312 24.0427 5.60687 25.5208 7.21189 25.7438C6.92169 26.2663 6.74993 26.8779 6.74993 27.5278C6.74993 29.4455 8.20097 31 9.97776 31C11.7545 31 13.2056 29.4391 13.2056 27.5278C13.2056 26.8906 13.0457 26.2854 12.7614 25.7757H19.9514C19.6672 26.2918 19.5072 26.8906 19.5072 27.5278C19.5072 29.4455 20.9583 31 22.7351 31C24.5119 31 25.9629 29.4391 25.9629 27.5278C25.9629 25.6164 24.5119 24.0555 22.7351 24.0555H7.6324C6.70847 24.0555 5.96222 23.2463 5.96222 22.2588V19.927C6.44788 20.2328 7.02237 20.4112 7.6324 20.4112ZM11.6124 27.5214C11.6124 28.4898 10.878 29.2735 9.98368 29.2735C9.08936 29.2735 8.35496 28.4834 8.35496 27.5214C8.35496 26.5593 9.08936 25.7693 9.98368 25.7693C10.878 25.7693 11.6124 26.553 11.6124 27.5214ZM24.3697 27.5214C24.3697 28.4898 23.6353 29.2735 22.741 29.2735C21.8467 29.2735 21.1123 28.4834 21.1123 27.5214C21.1123 26.5593 21.8467 25.7693 22.741 25.7693C23.6353 25.7693 24.3697 26.553 24.3697 27.5214ZM23.5109 18.691H7.6324C6.70847 18.691 5.96222 17.8818 5.96222 16.8943V12.6575V7.91735V7.59879L25.1811 10.4467V16.8879C25.1811 17.8882 24.4289 18.691 23.5109 18.691Z" fill="black"/>
</svg>
