<svg width="30" height="30" viewBox="0 0 30 30" fill="none" xmlns="http://www.w3.org/2000/svg">
<g clip-path="url(#clip0)">
<path d="M21.3139 16.1675H17.2375C16.1218 16.1675 15.2146 17.0747 15.2146 18.1904V21.3166C15.2146 22.4323 16.1218 23.3395 17.2375 23.3395H21.3139C22.4296 23.3395 23.3368 22.4323 23.3368 21.3166V18.1904C23.3368 17.0747 22.4296 16.1675 21.3139 16.1675ZM21.8656 21.3166C21.8656 21.6231 21.6143 21.8683 21.3139 21.8683H17.2375C16.931 21.8683 16.6858 21.617 16.6858 21.3166V18.1904C16.6858 17.8839 16.9371 17.6387 17.2375 17.6387H21.3139C21.6204 17.6387 21.8656 17.89 21.8656 18.1904V21.3166Z" fill="black"/>
<path d="M30 10.4853C30 10.3565 29.9694 10.2339 29.9019 10.1236L25.4393 2.27725C25.3106 2.05044 25.0654 1.90332 24.8018 1.90332H5.19207C4.92848 1.90332 4.68329 2.04431 4.55456 2.27725L0.0980793 10.1236C0.0367797 10.2339 0 10.3565 0 10.4853C0 12.2446 1.06048 13.7525 2.57458 14.4207V27.361C2.57458 27.7656 2.9056 28.0966 3.31018 28.0966H7.37434C7.38047 28.0966 7.3866 28.0966 7.39273 28.0966H13.0936C13.0997 28.0966 13.1058 28.0966 13.112 28.0966H26.6837C27.0883 28.0966 27.4193 27.7656 27.4193 27.361V14.5126C27.4193 14.482 27.4193 14.4575 27.4132 14.4329C28.9334 13.7648 30 12.2507 30 10.4853ZM5.62117 3.38064H24.3727L27.8606 9.51672H2.13935L5.62117 3.38064ZM21.3506 10.9818C21.1177 12.3059 19.9591 13.3112 18.5676 13.3112C17.1761 13.3112 16.0176 12.3059 15.7846 10.9818H21.3506ZM14.2215 10.9818C13.9886 12.3059 12.83 13.3112 11.4385 13.3112C10.047 13.3112 8.88844 12.3059 8.64937 10.9818H14.2215ZM1.52023 10.9818H7.09236C6.85942 12.3059 5.69473 13.3112 4.30323 13.3112C2.91173 13.3173 1.75317 12.3059 1.52023 10.9818ZM12.358 26.6254H8.12832V18.6871C8.12832 18.1109 8.5942 17.6389 9.17654 17.6389H11.3159C11.8921 17.6389 12.3641 18.1048 12.3641 18.6871V26.6254H12.358ZM25.9481 26.6254H13.8292V18.6871C13.8292 17.3018 12.7013 16.1677 11.3098 16.1677H9.17041C7.78504 16.1677 6.651 17.2956 6.651 18.6871V26.6316H4.04577V14.7824C4.13159 14.7885 4.21741 14.7885 4.30323 14.7885C5.78668 14.7885 7.09849 14.0345 7.87086 12.8882C8.64324 14.0345 9.95505 14.7885 11.4385 14.7885C12.9219 14.7885 14.2276 14.0345 15.0061 12.8882C15.7785 14.0345 17.0903 14.7885 18.5676 14.7885C20.0511 14.7885 21.3568 14.0345 22.1291 12.8882C22.9015 14.0345 24.2133 14.7885 25.6968 14.7885C25.7826 14.7885 25.8623 14.7824 25.9481 14.7824V26.6254ZM25.6968 13.3173C24.3053 13.3173 23.1467 12.312 22.9138 10.9879H28.4859C28.2468 12.3059 27.0883 13.3173 25.6968 13.3173Z" fill="black"/>
</g>
<defs>
<clipPath id="clip0">
<rect width="30" height="30" fill="white"/>
</clipPath>
</defs>
</svg>
