<svg viewBox="0 0 27 31" fill="none" xmlns="http://www.w3.org/2000/svg"><path d="M7.632 20.411h15.879c1.8 0 3.27-1.58 3.27-3.517V9.632c0-.014 0-.026-.007-.039 0-.013-.006-.032-.006-.045 0-.012-.006-.025-.006-.038-.006-.013-.006-.025-.011-.044-.006-.013-.006-.026-.012-.039-.006-.012-.006-.025-.012-.038a.336.336 0 01-.018-.045.142.142 0 00-.018-.031l-.017-.039-.018-.031c-.006-.013-.018-.026-.024-.039a.11.11 0 00-.024-.032c-.006-.012-.017-.019-.023-.031-.006-.013-.018-.02-.024-.032-.006-.013-.018-.02-.024-.026l-.03-.032c-.011-.006-.017-.019-.029-.025-.012-.006-.024-.02-.035-.026-.012-.006-.018-.012-.03-.019-.012-.006-.024-.012-.035-.025l-.036-.02a14.035 14.035 0 00-.036-.018l-.035-.02c-.012-.006-.024-.006-.036-.012a.104.104 0 00-.041-.013c-.012 0-.024-.006-.03-.006-.018-.007-.03-.007-.047-.007-.006 0-.012-.006-.024-.006L5.968 5.866v-3.02a.42.42 0 00-.006-.09c0-.006 0-.012-.006-.025 0-.019-.006-.038-.006-.057-.006-.02-.006-.032-.011-.051 0-.013-.006-.02-.006-.032l-.018-.057c0-.007-.006-.02-.006-.026a.197.197 0 00-.024-.05c-.006-.007-.006-.02-.012-.026-.006-.013-.011-.026-.023-.038-.006-.013-.012-.02-.018-.032-.006-.013-.012-.02-.018-.032-.006-.013-.018-.026-.024-.038l-.017-.02-.036-.038-.018-.019a.219.219 0 00-.041-.038c-.006-.006-.018-.013-.024-.02-.012-.012-.023-.018-.035-.031-.018-.013-.036-.026-.048-.032-.006-.006-.012-.006-.017-.013-.024-.012-.054-.025-.077-.038L1.112.068C.702-.117.235.088.063.527c-.171.44.018.943.427 1.128l3.873 1.758v18.846c0 1.784 1.244 3.262 2.849 3.485a3.675 3.675 0 00-.462 1.784C6.75 29.446 8.2 31 9.978 31c1.777 0 3.228-1.56 3.228-3.472 0-.637-.16-1.243-.445-1.752h7.19a3.624 3.624 0 00-.444 1.752c0 1.918 1.451 3.472 3.228 3.472 1.777 0 3.228-1.56 3.228-3.472s-1.451-3.473-3.228-3.473H7.632c-.924 0-1.67-.809-1.67-1.796v-2.332a3.13 3.13 0 001.67.484zm3.98 7.11c0 .969-.734 1.752-1.628 1.752-.895 0-1.629-.79-1.629-1.752s.734-1.752 1.629-1.752c.894 0 1.628.784 1.628 1.752zm12.758 0c0 .969-.735 1.752-1.629 1.752s-1.629-.79-1.629-1.752.735-1.752 1.629-1.752 1.629.784 1.629 1.752zm-.86-8.83H7.633c-.924 0-1.67-.81-1.67-1.797V7.598l19.22 2.849v6.44c0 1.001-.753 1.804-1.671 1.804z" fill="#000"/></svg>