<svg viewBox="0 0 30 30" fill="none" xmlns="http://www.w3.org/2000/svg"><path d="M25.597 4.395A14.891 14.891 0 0014.993 0c-4.009 0-7.77 1.56-10.605 4.395-5.48 5.48-5.86 14.252-.945 20.17-.482.97-1.256 2.099-2.404 2.663A1.396 1.396 0 00.272 28.7a1.406 1.406 0 001.173 1.18c.286.044.691.088 1.186.088 1.326 0 3.28-.31 5.277-1.75a14.998 14.998 0 0017.696-2.613A14.891 14.891 0 0029.999 15c0-4.008-1.566-7.77-4.402-10.605zm-1.211 19.998a13.284 13.284 0 01-16.123 2.068.853.853 0 00-1.04.133.282.282 0 00-.07.05c-1.718 1.333-3.406 1.612-4.522 1.612h-.006c1.287-.939 2.1-2.334 2.575-3.419a.876.876 0 00.044-.552.89.89 0 00-.209-.482C.392 18.558.633 10.567 5.593 5.607c5.182-5.182 13.611-5.182 18.787 0 5.188 5.182 5.188 13.604.006 18.786z" fill="#000"/><path d="M14.992 16.053a1.053 1.053 0 100-2.106 1.053 1.053 0 000 2.106zm5.43 0a1.053 1.053 0 100-2.106 1.053 1.053 0 000 2.106zm-10.859 0a1.053 1.053 0 100-2.106 1.053 1.053 0 000 2.106z" fill="#000"/></svg>