<svg viewBox="0 0 30 30" fill="none" xmlns="http://www.w3.org/2000/svg"><g clip-path="url(#clip0)" fill="#000"><path d="M21.314 16.168h-4.076a2.025 2.025 0 00-2.023 2.022v3.127c0 1.115.907 2.023 2.023 2.023h4.076a2.025 2.025 0 002.023-2.023V18.19a2.025 2.025 0 00-2.023-2.023zm.552 5.149a.553.553 0 01-.552.551h-4.076a.553.553 0 01-.552-.551V18.19c0-.306.251-.551.552-.551h4.076c.306 0 .552.251.552.551v3.127z"/><path d="M30 10.485a.682.682 0 00-.098-.361l-4.463-7.847a.74.74 0 00-.637-.374H5.192a.727.727 0 00-.637.374L.098 10.124a.743.743 0 00-.098.361c0 1.76 1.06 3.268 2.575 3.936v12.94c0 .405.33.736.735.736h23.374a.738.738 0 00.735-.736V14.513c0-.031 0-.056-.006-.08A4.315 4.315 0 0030 10.485zM5.621 3.381h18.752l3.488 6.136H2.139L5.621 3.38zm15.73 7.6a2.826 2.826 0 01-2.783 2.33 2.826 2.826 0 01-2.783-2.33h5.566zm-7.13 0a2.826 2.826 0 01-2.783 2.33 2.837 2.837 0 01-2.789-2.33h5.573zm-12.7 0h5.571a2.832 2.832 0 01-2.789 2.33 2.82 2.82 0 01-2.783-2.33zm10.837 15.644h-4.23v-7.938c0-.576.466-1.048 1.049-1.048h2.139c.576 0 1.048.466 1.048 1.048v7.938h-.006zm13.59 0H13.83v-7.938a2.523 2.523 0 00-2.52-2.52H9.17a2.523 2.523 0 00-2.519 2.52v7.945H4.046v-11.85c.086.007.171.007.257.007a4.298 4.298 0 003.568-1.9 4.298 4.298 0 007.135 0 4.287 4.287 0 007.123 0 4.298 4.298 0 003.568 1.9c.086 0 .165-.007.251-.007v11.843zm-.251-13.308a2.826 2.826 0 01-2.783-2.33h5.572a2.843 2.843 0 01-2.79 2.33z"/></g><defs><clipPath id="clip0"><path fill="#fff" d="M0 0h30v30H0z"/></clipPath></defs></svg>