<svg width="30" height="30" viewBox="0 0 30 30" fill="none" xmlns="http://www.w3.org/2000/svg">
<path d="M10.6055 12.3633H19.3945V15.8789H10.6055V12.3633Z" fill="#C4C4C4"/>
<path d="M19.3945 7.08984H18.5156C18.0307 7.08984 17.6367 6.69586 17.6367 6.21094V5.33203H19.3945V3.57422H10.6055V5.33203H12.3633V6.21094C12.3633 6.69586 11.9693 7.08984 11.4844 7.08984H10.6055V10.6055H19.3945V7.08984Z" fill="#C4C4C4"/>
<path d="M22.9102 11.4844C22.9102 15.8463 19.3619 19.3945 15 19.3945C10.6381 19.3945 7.08984 15.8463 7.08984 11.4844C7.08984 10.3446 7.32 9.65326 7.46232 8.84766H0V14.1211H2.09707C2.43352 15.7639 3.08672 17.338 4.01455 18.7405L2.57086 20.185L6.29936 23.9135L7.74387 22.4698C9.14637 23.3977 10.7205 24.0508 12.3633 24.3873V26.4258H17.6367V24.3873C19.2795 24.0509 20.8536 23.3977 22.2561 22.4698L23.7006 23.9135L27.4291 20.185L25.9854 18.7405C26.9133 17.338 27.5664 15.7639 27.9029 14.1211H30V8.84766H22.5377C22.6713 9.60445 22.9102 10.3338 22.9102 11.4844Z" fill="#C4C4C4"/>
</svg>
