<svg width="30" height="30" viewBox="0 0 30 30" fill="none" xmlns="http://www.w3.org/2000/svg">
<path d="M22.5 0H7.49999C6.12122 0 4.99997 1.12119 4.99997 2.50002V8.12502C4.99997 8.47049 5.27952 8.75004 5.62499 8.75004H24.375C24.7205 8.75004 25 8.47049 25 8.12502V2.50002C25 1.12119 23.8788 0 22.5 0ZM11.875 6.25002H8.12501C7.8723 6.25002 7.64408 6.09803 7.54763 5.8643C7.4506 5.63051 7.50427 5.36197 7.68316 5.18314L8.30818 4.55813C8.55234 4.31396 8.94784 4.31396 9.19195 4.55813C9.314 4.68018 9.37505 4.84014 9.37505 5.00004H11.8751C12.2205 5.00004 12.5001 5.27959 12.5001 5.62506C12.5001 5.97053 12.2205 6.25002 11.875 6.25002Z" fill="#FF5100"/>
<path d="M24.375 9.75H5.62498C5.27951 9.75 4.99996 10.0296 4.99996 10.375V26C4.99996 27.3787 6.12115 28.5 7.49998 28.5V29.125C7.49998 29.4705 7.77953 29.75 8.125 29.75H9.37498C9.72045 29.75 10 29.4705 10 29.125V28.5H20V29.125C20 29.4705 20.2796 29.75 20.625 29.75H21.875C22.2205 29.75 22.5 29.4705 22.5 29.125V28.5C23.8788 28.5 25.0001 27.3788 25.0001 26V10.375C25 10.0295 24.7204 9.75 24.375 9.75ZM11.875 13.5H8.125C7.87229 13.5 7.64406 13.348 7.54762 13.1143C7.45059 12.8805 7.50426 12.612 7.68315 12.4331L8.30816 11.8081C8.55233 11.5639 8.94783 11.5639 9.19194 11.8081C9.31399 11.9302 9.37504 12.0901 9.37504 12.25H11.8751C12.2205 12.25 12.5001 12.5296 12.5001 12.875C12.5001 13.2205 12.2205 13.5 11.875 13.5Z" fill="#FF5100"/>
</svg>
