<svg width="30" height="30" viewBox="0 0 30 30" fill="none" xmlns="http://www.w3.org/2000/svg">
<g clip-path="url(#clip0)">
<path d="M30 18.4091V17.0455C30 16.6686 29.695 16.3636 29.3182 16.3636H23.8636V12.2727H24.5455C26.0496 12.2727 27.2728 11.0496 27.2728 9.54544V2.7273C27.2728 1.22312 26.0496 0 24.5455 0H2.7273C1.22312 0 0 1.22312 0 2.7273V6.81821C0 8.32232 1.22312 9.5455 2.7273 9.5455H3.51096C3.75929 11.2434 4.09091 13.96 4.09091 16.3636C4.09091 19.68 3.57296 22.7441 3.19443 24.5455H2.72723C1.22312 24.5455 0 25.7686 0 27.2728V29.3182C0 29.6951 0.304965 30.0001 0.68184 30.0001H29.3182C29.6951 30.0001 30.0001 29.6951 30.0001 29.3182V27.2728C30.0001 25.7687 28.7769 24.5455 27.2728 24.5455H26.7987C28.7314 23.1874 30 20.9453 30 18.4091ZM8.18182 19.7727C7.43012 19.7727 6.81821 19.1608 6.81821 18.4091C6.81821 17.6574 7.43012 17.0455 8.18182 17.0455C8.93353 17.0455 9.54544 17.6574 9.54544 18.4091C9.54544 19.1608 8.93353 19.7727 8.18182 19.7727ZM8.18182 15C7.43012 15 6.81821 14.3881 6.81821 13.6364C6.81821 12.8847 7.43012 12.2728 8.18182 12.2728C8.93353 12.2728 9.54544 12.8847 9.54544 13.6364C9.54544 14.3881 8.93353 15 8.18182 15ZM9.54544 6.13637C9.54544 6.51324 9.24047 6.81821 8.8636 6.81821H6.13637C5.00843 6.81821 4.09091 5.90069 4.09091 4.77275C4.09091 3.64481 5.00843 2.7273 6.13637 2.7273H8.86366C9.24054 2.7273 9.5455 3.03226 9.5455 3.40914V6.13637H9.54544ZM10.9091 6.13637V3.40907C10.9091 3.0322 11.2141 2.72723 11.591 2.72723H14.3182C15.4461 2.72723 16.3636 3.64475 16.3636 4.77269C16.3636 5.90063 15.4461 6.81814 14.3182 6.81814H11.5909C11.214 6.81821 10.9091 6.51324 10.9091 6.13637ZM22.5 16.3636H15.6818C15.3049 16.3636 15 16.6686 15 17.0455V18.4091C15 20.9453 16.2687 23.1874 18.2013 24.5455H13.6363V9.54544H19.0908C19.0908 11.0496 20.3139 12.2727 21.8181 12.2727H22.5V16.3636Z" fill="#C4C4C4"/>
</g>
<defs>
<clipPath id="clip0">
<rect width="30" height="30" fill="white"/>
</clipPath>
</defs>
</svg>
