<svg width="30" height="30" viewBox="0 0 30 30" fill="none" xmlns="http://www.w3.org/2000/svg">
<path d="M21.5789 18.6841H22.6316C23.7942 18.6841 24.7368 17.7414 24.7368 16.5788C24.7368 15.4162 23.7942 14.4735 22.6316 14.4735H21.5789V13.4209H13.1579V18.6841C13.1579 21.0096 15.0429 22.8946 17.3684 22.8946C19.6939 22.8946 21.5789 21.0096 21.5789 18.6841Z" fill="#C4C4C4"/>
<path d="M28.9474 7.63135H24.7368V8.15767H21.0526V9.2103H24.7368V9.73662H28.9474C29.5287 9.73662 30 9.2653 30 8.68398C30 8.10267 29.5287 7.63135 28.9474 7.63135Z" fill="#C4C4C4"/>
<path d="M16.8421 9.73682H17.8947V10.7894H16.8421V9.73682Z" fill="#C4C4C4"/>
<path d="M29.4737 25.5264H0V27.1053C0.00179893 28.5581 1.17881 29.7351 2.63158 29.7369H26.8421C28.2949 29.7351 29.4719 28.5581 29.4737 27.1053V25.5264ZM26.8421 28.6843H2.63158C1.75961 28.6843 1.05263 27.9773 1.05263 27.1053C1.05263 26.8147 1.28829 26.579 1.57895 26.579C1.8696 26.579 2.10526 26.8147 2.10526 27.1053C2.10526 27.396 2.34092 27.6316 2.63158 27.6316H26.8421C27.1328 27.6316 27.3684 27.396 27.3684 27.1053C27.3684 26.8147 27.6041 26.579 27.8947 26.579C28.1854 26.579 28.4211 26.8147 28.4211 27.1053C28.4211 27.9773 27.7141 28.6843 26.8421 28.6843Z" fill="#C4C4C4"/>
<path d="M14.2105 7.10542C14.2105 7.97739 14.9175 8.68437 15.7895 8.68437H18.9474C19.8193 8.68437 20.5263 7.97739 20.5263 7.10542V6.5791H14.2105V7.10542Z" fill="#C4C4C4"/>
<path d="M11.5789 23.4209H26.8421V24.4735H11.5789V23.4209Z" fill="#C4C4C4"/>
<path d="M5.26316 16.5791C4.39119 16.5791 3.68421 17.2861 3.68421 18.158C3.68421 19.03 4.39119 19.737 5.26316 19.737C6.13512 19.737 6.8421 19.03 6.8421 18.158C6.8421 17.2861 6.13512 16.5791 5.26316 16.5791ZM5.26316 18.6844C4.9725 18.6844 4.73684 18.4487 4.73684 18.158C4.73684 17.8674 4.9725 17.6317 5.26316 17.6317C5.55381 17.6317 5.78947 17.8674 5.78947 18.158C5.78947 18.4487 5.55381 18.6844 5.26316 18.6844Z" fill="#C4C4C4"/>
<path d="M22.1053 3.42128H22.6316C22.9222 3.42128 23.1579 3.18562 23.1579 2.89497C23.1579 2.60431 22.9222 2.36865 22.6316 2.36865H22.1053C21.8146 2.36865 21.5789 2.60431 21.5789 2.89497C21.5789 3.18562 21.8146 3.42128 22.1053 3.42128Z" fill="#C4C4C4"/>
<path d="M6.8421 10.7896H3.68421C3.39355 10.7896 3.15789 11.0252 3.15789 11.3159V20.7895C3.15789 21.0802 3.39355 21.3159 3.68421 21.3159H6.8421C7.13276 21.3159 7.36842 21.0802 7.36842 20.7895V11.3159C7.36842 11.0252 7.13276 10.7896 6.8421 10.7896ZM5.26316 15.0001C4.39119 15.0001 3.68421 14.2931 3.68421 13.4211C3.68421 12.5492 4.39119 11.8422 5.26316 11.8422C6.13512 11.8422 6.8421 12.5492 6.8421 13.4211C6.8421 14.2931 6.13512 15.0001 5.26316 15.0001Z" fill="#C4C4C4"/>
<path d="M5.78947 13.4208C5.78947 13.7115 5.55381 13.9472 5.26316 13.9472C4.9725 13.9472 4.73684 13.7115 4.73684 13.4208C4.73684 13.1302 4.9725 12.8945 5.26316 12.8945C5.55381 12.8945 5.78947 13.1302 5.78947 13.4208Z" fill="#C4C4C4"/>
<path d="M21.0526 0.263184H0V24.4737H10.5263V6.05266C10.5263 5.762 10.762 5.52634 11.0526 5.52634H24.7368V3.94739C24.7345 1.91357 23.0865 0.265497 21.0526 0.263184ZM1.05263 2.89476C1.05263 2.60411 1.28829 2.36845 1.57895 2.36845H2.10526C2.39592 2.36845 2.63158 2.60411 2.63158 2.89476C2.63158 3.18542 2.39592 3.42108 2.10526 3.42108H1.57895C1.28829 3.42108 1.05263 3.18542 1.05263 2.89476ZM8.42105 20.7895C8.42105 21.6615 7.71407 22.3684 6.84211 22.3684H3.68421C2.81224 22.3684 2.10526 21.6615 2.10526 20.7895V11.3158C2.10526 10.4438 2.81224 9.73687 3.68421 9.73687H6.84211C7.71407 9.73687 8.42105 10.4438 8.42105 11.3158V20.7895ZM20.5263 3.42108H3.68421C3.39355 3.42108 3.15789 3.18542 3.15789 2.89476C3.15789 2.60411 3.39355 2.36845 3.68421 2.36845H20.5263C20.817 2.36845 21.0526 2.60411 21.0526 2.89476C21.0526 3.18542 20.817 3.42108 20.5263 3.42108Z" fill="#C4C4C4"/>
</svg>
