<svg width="30" height="30" viewBox="0 0 30 30" fill="none" xmlns="http://www.w3.org/2000/svg">
<g clip-path="url(#clip5)">
<path d="M25.4564 0H4.54357C3.13419 0 1.9917 1.14249 1.9917 2.55187V5.16598C1.9917 5.44095 2.21465 5.6639 2.48963 5.6639H24.6904C24.9888 5.6639 25.2492 5.88909 25.2685 6.18678C25.2896 6.51305 25.0313 6.78423 24.7096 6.78423H2.48963C2.21465 6.78423 1.9917 7.00718 1.9917 7.28216V27.4481C1.9917 28.8575 3.13419 30 4.54357 30H25.4564C26.8658 30 28.0083 28.8575 28.0083 27.4481V2.55187C28.0083 1.14249 26.8658 0 25.4564 0ZM9.83403 4.04564H8.96266C8.65326 4.04564 8.4025 3.79488 8.4025 3.48548C8.4025 3.17608 8.65326 2.92531 8.96266 2.92531H9.83403C10.1434 2.92531 10.3942 3.17608 10.3942 3.48548C10.3942 3.79488 10.1434 4.04564 9.83403 4.04564ZM16.6183 4.04564H13.3818C13.0724 4.04564 12.8216 3.79488 12.8216 3.48548C12.8216 3.17608 13.0724 2.92531 13.3818 2.92531H16.6183C16.9277 2.92531 17.1784 3.17608 17.1784 3.48548C17.1784 3.79488 16.9277 4.04564 16.6183 4.04564ZM21.0374 4.04564H20.166C19.8566 4.04564 19.6058 3.79488 19.6058 3.48548C19.6058 3.17608 19.8566 2.92531 20.166 2.92531H21.0374C21.3468 2.92531 21.5975 3.17608 21.5975 3.48548C21.5975 3.79488 21.3468 4.04564 21.0374 4.04564ZM18.1781 8.74674C18.4531 8.60471 18.791 8.71245 18.9329 8.98737L20.0413 11.133C20.1833 11.4078 20.0756 11.7457 19.8008 11.8877C19.5253 12.0299 19.1877 11.9215 19.046 11.6471L17.9376 9.50147C17.7956 9.22662 17.9033 8.88871 18.1781 8.74674ZM14.4398 9.52282C14.4398 9.21342 14.6906 8.96266 15 8.96266C15.3094 8.96266 15.5602 9.21342 15.5602 9.52282V12.5104C15.5602 12.8198 15.3094 13.0705 15 13.0705C14.6906 13.0705 14.4398 12.8198 14.4398 12.5104V9.52282ZM9.89652 11.133L11.0049 8.98737C11.1468 8.71251 11.4847 8.60465 11.7597 8.74674C12.0346 8.88871 12.1422 9.22662 12.0003 9.50147L10.8919 11.6471C10.7499 11.922 10.4119 12.0297 10.1371 11.8877C9.86223 11.7457 9.75455 11.4078 9.89652 11.133ZM10.6432 26.7012C7.62305 26.7012 5.16598 24.2442 5.16598 21.2241C5.16598 18.204 7.62305 15.7469 10.6432 15.7469C13.6633 15.7469 16.1203 18.204 16.1203 21.2241C16.1203 24.2442 13.6633 26.7012 10.6432 26.7012ZM16.8006 26.3983C16.5085 26.4999 16.1892 26.3456 16.0875 26.0533C15.9858 25.7612 16.1403 25.4419 16.4324 25.3402C18.1816 24.7315 19.3569 23.0773 19.3569 21.2241C19.3569 19.3708 18.1816 17.7167 16.4324 17.108C16.1403 17.0064 15.9858 16.6871 16.0875 16.3949C16.1892 16.1027 16.5081 15.9482 16.8006 16.0499C18.9997 16.8151 20.4772 18.8944 20.4772 21.2241C20.4772 23.5537 18.9997 25.6331 16.8006 26.3983ZM21.1575 26.3983C20.8653 26.4999 20.546 26.3456 20.4443 26.0533C20.3426 25.7612 20.4971 25.4419 20.7893 25.3402C22.5385 24.7315 23.7137 23.0773 23.7137 21.2241C23.7137 19.3708 22.5385 17.7167 20.7893 17.108C20.4971 17.0064 20.3426 16.6871 20.4443 16.3949C20.546 16.1027 20.865 15.9482 21.1575 16.0499C23.3566 16.8151 24.834 18.8944 24.834 21.2241C24.834 23.5537 23.3566 25.6331 21.1575 26.3983Z" fill="#C4C4C4"/>
</g>
<defs>
<clipPath id="clip5">
<rect width="30" height="30" fill="white"/>
</clipPath>
</defs>
</svg>
