<svg width="30" height="30" viewBox="0 0 30 30" fill="none" xmlns="http://www.w3.org/2000/svg">
<g clip-path="url(#clip4)">
<path d="M21.1364 12.2729H8.86366C8.48679 12.2729 8.18182 12.5779 8.18182 12.9548C8.18182 13.3317 8.48679 13.6366 8.86366 13.6366H21.1364C21.5133 13.6366 21.8182 13.3317 21.8182 12.9548C21.8182 12.5779 21.5133 12.2729 21.1364 12.2729Z" fill="#C4C4C4"/>
<path d="M12.073 15.8814C11.8066 15.6151 11.3752 15.6151 11.1089 15.8814L7.01796 19.9723C6.7516 20.2387 6.7516 20.6701 7.01796 20.9364C7.15111 21.0696 7.32561 21.1362 7.50005 21.1362C7.67449 21.1362 7.84893 21.0696 7.98214 20.9364L12.0731 16.8455C12.3393 16.5792 12.3393 16.1478 12.073 15.8814Z" fill="#C4C4C4"/>
<path d="M12.4725 18.6089L9.74518 21.3362C9.47882 21.6026 9.47882 22.0341 9.74518 22.3004C9.87832 22.4335 10.0528 22.5001 10.2273 22.5001C10.4017 22.5001 10.5761 22.4335 10.7094 22.3004L13.4367 19.5731C13.703 19.3067 13.703 18.8752 13.4367 18.6089C13.1703 18.3426 12.7388 18.3426 12.4725 18.6089Z" fill="#C4C4C4"/>
<path d="M27.2728 0H2.7273C1.22382 0 0 1.22312 0 2.7273V27.2728C0 28.7769 1.22382 30.0001 2.7273 30.0001H27.2728C28.7762 30.0001 30.0001 28.7769 30.0001 27.2728V2.7273C30 1.22312 28.7762 0 27.2728 0ZM9.54544 4.77275C9.54544 4.39588 9.8504 4.09091 10.2273 4.09091H19.7727C20.1496 4.09091 20.4546 4.39588 20.4546 4.77275V7.50005C20.4546 7.87692 20.1496 8.18189 19.7727 8.18189H10.2273C9.8504 8.18189 9.54544 7.87692 9.54544 7.50005V4.77275ZM6.13637 4.09091C7.26431 4.09091 8.18182 5.00843 8.18182 6.13637C8.18182 7.26431 7.26431 8.18182 6.13637 8.18182C5.00843 8.18182 4.09091 7.26431 4.09091 6.13637C4.09091 5.00843 5.00843 4.09091 6.13637 4.09091ZM25.9091 25.2273C25.9091 25.6042 25.6041 25.9092 25.2272 25.9092H4.77269C4.39581 25.9092 4.09085 25.6042 4.09085 25.2273V10.2273C4.09085 9.8504 4.39581 9.54544 4.77269 9.54544H25.2272C25.6041 9.54544 25.9091 9.8504 25.9091 10.2273V25.2273ZM23.8636 8.18182C22.7357 8.18182 21.8182 7.26431 21.8182 6.13637C21.8182 5.00843 22.7357 4.09091 23.8636 4.09091C24.9916 4.09091 25.9091 5.00843 25.9091 6.13637C25.9091 7.26431 24.9916 8.18182 23.8636 8.18182Z" fill="#C4C4C4"/>
</g>
<defs>
<clipPath id="clip4">
<rect width="30" height="30" fill="white"/>
</clipPath>
</defs>
</svg>
