<svg width="30" height="30" viewBox="0 0 30 30" fill="none" xmlns="http://www.w3.org/2000/svg">
<g clip-path="url(#clip3)">
<path d="M23.8637 17.7274H24.4487C24.2007 16.7736 23.4535 16.0266 22.5 15.7788V16.3637C22.5 16.7406 22.195 17.0456 21.8181 17.0456C21.4413 17.0456 21.1363 16.7406 21.1363 16.3637V15.7788C20.1827 16.0267 19.4356 16.7737 19.1876 17.7274H19.7726C20.1495 17.7274 20.4545 18.0323 20.4545 18.4092C20.4545 18.7861 20.1495 19.091 19.7726 19.091H19.1876C19.4356 20.0448 20.1827 20.7918 21.1363 21.0396V20.4547C21.1363 20.0778 21.4413 19.7728 21.8181 19.7728C22.195 19.7728 22.5 20.0778 22.5 20.4547V21.0396C23.4536 20.7917 24.2008 20.0447 24.4487 19.091H23.8637C23.4868 19.091 23.1819 18.7861 23.1819 18.4092C23.1819 18.0323 23.4868 17.7274 23.8637 17.7274Z" fill="#C4C4C4"/>
<path d="M10.2273 17.7274H10.8123C10.5643 16.7736 9.81715 16.0266 8.86359 15.7788V16.3637C8.86359 16.7406 8.55862 17.0456 8.18175 17.0456C7.80487 17.0456 7.49991 16.7406 7.49991 16.3637V15.7788C6.54634 16.0267 5.79918 16.7737 5.55123 17.7274H6.13636C6.51323 17.7274 6.8182 18.0323 6.8182 18.4092C6.8182 18.7861 6.51323 19.091 6.13636 19.091H5.55136C5.79931 20.0448 6.54647 20.7918 7.50004 21.0396V20.4547C7.50004 20.0778 7.805 19.7728 8.18188 19.7728C8.55875 19.7728 8.86372 20.0778 8.86372 20.4547V21.0396C9.81728 20.7917 10.5644 20.0447 10.8124 19.091H10.2273C9.85039 19.091 9.54543 18.7861 9.54543 18.4092C9.54543 18.0323 9.85039 17.7274 10.2273 17.7274Z" fill="#C4C4C4"/>
<path d="M12.2727 26.591L12.2741 25.9092L12.2727 25.9099V26.591Z" fill="#C4C4C4"/>
<path d="M17.7273 26.591L17.7286 25.9092L17.7273 25.9099V26.591Z" fill="#C4C4C4"/>
<path d="M23.1819 26.591L23.1832 25.9092L23.1819 25.9099V26.591Z" fill="#C4C4C4"/>
<path d="M27.2728 0H2.7273C1.22382 0 0 1.22312 0 2.7273V27.2728C0 28.7769 1.22382 30.0001 2.7273 30.0001H27.2728C28.7762 30.0001 30.0001 28.7769 30.0001 27.2728V2.7273C30 1.22312 28.7762 0 27.2728 0ZM4.09091 7.49998H4.15982C4.44893 5.79209 5.79209 4.44893 7.49998 4.15982V4.09091C7.49998 3.71404 7.80495 3.40907 8.18182 3.40907C8.5587 3.40907 8.86366 3.71404 8.86366 4.09091V4.15982C10.5716 4.44893 11.9147 5.79209 12.2038 7.49998H12.2727C12.6496 7.49998 12.9546 7.80495 12.9546 8.18182C12.9546 8.5587 12.6496 8.86366 12.2727 8.86366H12.2038C11.9147 10.5716 10.5716 11.9147 8.86366 12.2038V12.2727C8.86366 12.6496 8.5587 12.9546 8.18182 12.9546C7.80495 12.9546 7.49998 12.6496 7.49998 12.2727V12.2038C5.79209 11.9147 4.44893 10.5716 4.15982 8.86366H4.09091C3.71404 8.86366 3.40907 8.5587 3.40907 8.18182C3.40907 7.80495 3.71404 7.49998 4.09091 7.49998ZM6.81821 27.2728C6.0658 27.2728 5.45459 26.6609 5.45459 25.9092C5.45459 25.1574 6.0658 24.5455 6.81821 24.5455C7.57062 24.5455 8.18182 25.1574 8.18182 25.9091C8.18182 26.6608 7.57055 27.2728 6.81821 27.2728ZM8.86366 22.5C8.86366 22.8769 8.5587 23.1819 8.18182 23.1819C7.80495 23.1819 7.49998 22.8769 7.49998 22.5V22.4311C5.79209 22.142 4.44893 20.7988 4.15982 19.0909H4.09091C3.71404 19.0909 3.40907 18.786 3.40907 18.4091C3.40907 18.0322 3.71404 17.7273 4.09091 17.7273H4.15982C4.44893 16.0194 5.79209 14.6762 7.49998 14.3871V14.3182C7.49998 13.9413 7.80495 13.6364 8.18182 13.6364C8.5587 13.6364 8.86366 13.9413 8.86366 14.3182V14.3871C10.5716 14.6762 11.9147 16.0194 12.2038 17.7273H12.2727C12.6496 17.7273 12.9546 18.0322 12.9546 18.4091C12.9546 18.786 12.6496 19.0909 12.2727 19.0909H12.2038C11.9147 20.7988 10.5716 22.142 8.86366 22.4311V22.5ZM12.2727 27.2728C11.5203 27.2728 10.9091 26.6609 10.9091 25.9092C10.9091 25.1574 11.5203 24.5455 12.2727 24.5455C13.0251 24.5455 13.6364 25.1574 13.6364 25.9091C13.6364 26.6608 13.0251 27.2728 12.2727 27.2728ZM17.7273 27.2728C16.9749 27.2728 16.3636 26.6609 16.3636 25.9092C16.3636 25.1574 16.9749 24.5455 17.7273 24.5455C18.4797 24.5455 19.0909 25.1574 19.0909 25.9091C19.0909 26.6608 18.4797 27.2728 17.7273 27.2728ZM23.1819 27.2728C22.4294 27.2728 21.8182 26.6609 21.8182 25.9092C21.8182 25.1574 22.4294 24.5455 23.1819 24.5455C23.9343 24.5455 24.5455 25.1574 24.5455 25.9091C24.5455 26.6608 23.9343 27.2728 23.1819 27.2728ZM25.9091 19.0909H25.8402C25.5511 20.7988 24.2079 22.142 22.5 22.4311V22.5C22.5 22.8769 22.1951 23.1819 21.8182 23.1819C21.4413 23.1819 21.1363 22.8769 21.1363 22.5V22.4311C19.4284 22.142 18.0853 20.7988 17.7962 19.0909H17.7273C17.3504 19.0909 17.0454 18.786 17.0454 18.4091C17.0454 18.0322 17.3504 17.7273 17.7273 17.7273H17.7962C18.0853 16.0194 19.4284 14.6762 21.1363 14.3871V14.3182C21.1363 13.9413 21.4413 13.6364 21.8182 13.6364C22.1951 13.6364 22.5 13.9413 22.5 14.3182V14.3871C24.2079 14.6762 25.5511 16.0194 25.8402 17.7273H25.9091C26.286 17.7273 26.5909 18.0322 26.5909 18.4091C26.5909 18.786 26.286 19.0909 25.9091 19.0909ZM25.9091 8.86366H25.8402C25.5511 10.5716 24.2079 11.9147 22.5 12.2038V12.2727C22.5 12.6496 22.1951 12.9546 21.8182 12.9546C21.4413 12.9546 21.1363 12.6496 21.1363 12.2727V12.2038C19.4284 11.9147 18.0853 10.5716 17.7962 8.86366H17.7273C17.3504 8.86366 17.0454 8.5587 17.0454 8.18182C17.0454 7.80495 17.3504 7.49998 17.7273 7.49998H17.7962C18.0853 5.79209 19.4284 4.44893 21.1363 4.15982V4.09091C21.1363 3.71404 21.4413 3.40907 21.8182 3.40907C22.1951 3.40907 22.5 3.71404 22.5 4.09091V4.15982C24.2079 4.44893 25.5511 5.79209 25.8402 7.49998H25.9091C26.286 7.49998 26.5909 7.80495 26.5909 8.18182C26.5909 8.5587 26.286 8.86366 25.9091 8.86366Z" fill="#C4C4C4"/>
<path d="M6.81821 26.591L6.81949 25.9092L6.81821 25.9099V26.591Z" fill="#C4C4C4"/>
<path d="M23.8636 7.49982H24.4486C24.2007 6.54606 23.4535 5.79909 22.4999 5.55127V6.13621C22.4999 6.51308 22.195 6.81805 21.8181 6.81805C21.4412 6.81805 21.1364 6.51308 21.1364 6.13621V5.55127C20.1828 5.79915 19.4356 6.54613 19.1877 7.49982H19.7727C20.1496 7.49982 20.4545 7.80479 20.4545 8.18166C20.4545 8.55854 20.1496 8.8635 19.7727 8.8635H19.1877C19.4356 9.81726 20.1828 10.5642 21.1364 10.8121V10.2271C21.1364 9.85024 21.4413 9.54528 21.8182 9.54528C22.1951 9.54528 22.5 9.85024 22.5 10.2271V10.8121C23.4536 10.5642 24.2007 9.8172 24.4487 8.8635H23.8637C23.4868 8.8635 23.1818 8.55854 23.1818 8.18166C23.1818 7.80479 23.4868 7.49982 23.8636 7.49982Z" fill="#C4C4C4"/>
<path d="M6.13636 8.8635H5.55136C5.79931 9.81726 6.54647 10.5642 7.50004 10.8121V10.2271C7.50004 9.85024 7.805 9.54528 8.18188 9.54528C8.55875 9.54528 8.86372 9.85024 8.86372 10.2271V10.8121C9.81728 10.5642 10.5644 9.8172 10.8124 8.8635H10.2273C9.85039 8.8635 9.54543 8.55854 9.54543 8.18166C9.54543 7.80479 9.85039 7.49982 10.2273 7.49982H10.8123C10.5643 6.54606 9.81715 5.79909 8.86359 5.55127V6.13621C8.86359 6.51308 8.55862 6.81805 8.18175 6.81805C7.80487 6.81805 7.49991 6.51308 7.49991 6.13621V5.55127C6.54634 5.79915 5.79918 6.54613 5.55123 7.49982H6.13636C6.51323 7.49982 6.8182 7.80479 6.8182 8.18166C6.8182 8.55854 6.51323 8.8635 6.13636 8.8635Z" fill="#C4C4C4"/>
</g>
<defs>
<clipPath id="clip3">
<rect width="30" height="30" fill="white"/>
</clipPath>
</defs>
</svg>
