<svg width="30" height="30" viewBox="0 0 30 30" fill="none" xmlns="http://www.w3.org/2000/svg">
<g clip-path="url(#clip2)">
<path d="M12.2727 5.45459H11.2087C11.8629 6.18002 12.2727 7.13033 12.2727 8.18189C12.2727 9.23345 11.8629 10.1838 11.2087 10.9092H12.2727C13.7762 10.9092 15 9.68607 15 8.18189C15 6.67771 13.7762 5.45459 12.2727 5.45459Z" fill="#C4C4C4"/>
<path d="M8.18182 10.9092C9.68807 10.9092 10.9091 9.68814 10.9091 8.18189C10.9091 6.67564 9.68807 5.45459 8.18182 5.45459C6.67557 5.45459 5.45452 6.67564 5.45452 8.18189C5.45452 9.68814 6.67557 10.9092 8.18182 10.9092Z" fill="#C4C4C4"/>
<path d="M8.18182 21.8184C9.68807 21.8184 10.9091 20.5973 10.9091 19.0911C10.9091 17.5848 9.68807 16.3638 8.18182 16.3638C6.67557 16.3638 5.45452 17.5848 5.45452 19.0911C5.45452 20.5973 6.67557 21.8184 8.18182 21.8184Z" fill="#C4C4C4"/>
<path d="M21.8181 21.8184C23.3244 21.8184 24.5454 20.5973 24.5454 19.0911C24.5454 17.5848 23.3244 16.3638 21.8181 16.3638C20.3119 16.3638 19.0909 17.5848 19.0909 19.0911C19.0909 20.5973 20.3119 21.8184 21.8181 21.8184Z" fill="#C4C4C4"/>
<path d="M27.2728 0H2.7273C1.22382 0 0 1.22312 0 2.7273V27.2728C0 28.7769 1.22382 30.0001 2.7273 30.0001H27.2728C28.7762 30.0001 30.0001 28.7769 30.0001 27.2728V2.7273C30 1.22312 28.7762 0 27.2728 0ZM6.81821 27.2728C6.0658 27.2728 5.45459 26.6609 5.45459 25.9092C5.45459 25.1574 6.0658 24.5455 6.81821 24.5455C7.57062 24.5455 8.18182 25.1574 8.18182 25.9091C8.18182 26.6608 7.57055 27.2728 6.81821 27.2728ZM4.09091 19.0909C4.09091 16.8351 5.92594 15 8.18182 15C10.4377 15 12.2727 16.8351 12.2727 19.0909C12.2727 21.3468 10.4377 23.1819 8.18182 23.1819C5.92594 23.1819 4.09091 21.3468 4.09091 19.0909ZM12.2727 27.2728C11.5203 27.2728 10.9091 26.6609 10.9091 25.9092C10.9091 25.1574 11.5203 24.5455 12.2727 24.5455C13.0251 24.5455 13.6364 25.1574 13.6364 25.9091C13.6364 26.6608 13.0251 27.2728 12.2727 27.2728ZM12.2727 12.2727H8.18182C5.92594 12.2727 4.09091 10.4377 4.09091 8.18182C4.09091 5.92594 5.92594 4.09091 8.18182 4.09091H12.2727C14.5286 4.09091 16.3636 5.92594 16.3636 8.18182C16.3636 10.4377 14.5286 12.2727 12.2727 12.2727ZM17.7273 27.2728C16.9749 27.2728 16.3636 26.6609 16.3636 25.9092C16.3636 25.1574 16.9749 24.5455 17.7273 24.5455C18.4797 24.5455 19.0909 25.1574 19.0909 25.9091C19.0909 26.6608 18.4797 27.2728 17.7273 27.2728ZM23.1819 27.2728C22.4294 27.2728 21.8182 26.6609 21.8182 25.9092C21.8182 25.1574 22.4294 24.5455 23.1819 24.5455C23.9343 24.5455 24.5455 25.1574 24.5455 25.9091C24.5455 26.6608 23.9343 27.2728 23.1819 27.2728ZM21.8182 23.1819C19.5623 23.1819 17.7273 21.3468 17.7273 19.0909C17.7273 16.8351 19.5623 15 21.8182 15C24.0741 15 25.9091 16.8351 25.9091 19.0909C25.9091 21.3468 24.0741 23.1819 21.8182 23.1819ZM21.8182 12.2727C19.5623 12.2727 17.7273 10.4377 17.7273 8.18182C17.7273 5.92594 19.5623 4.09091 21.8182 4.09091C24.0741 4.09091 25.9091 5.92594 25.9091 8.18182C25.9091 10.4377 24.0741 12.2727 21.8182 12.2727Z" fill="#C4C4C4"/>
<path d="M21.8181 10.9092C23.3244 10.9092 24.5454 9.68814 24.5454 8.18189C24.5454 6.67564 23.3244 5.45459 21.8181 5.45459C20.3119 5.45459 19.0909 6.67564 19.0909 8.18189C19.0909 9.68814 20.3119 10.9092 21.8181 10.9092Z" fill="#C4C4C4"/>
</g>
<defs>
<clipPath id="clip2">
<rect width="30" height="30" fill="white"/>
</clipPath>
</defs>
</svg>
