<svg width="13" height="24" viewBox="0 0 13 24" fill="none" xmlns="http://www.w3.org/2000/svg">
<path d="M2.66667 0.333271C2.27725 0.33251 1.89986 0.468136 1.6 0.716604C1.43124 0.85652 1.29174 1.02835 1.18948 1.22227C1.08723 1.41618 1.02424 1.62836 1.00411 1.84665C0.983983 2.06495 1.00712 2.28507 1.07219 2.49441C1.13727 2.70374 1.243 2.89819 1.38334 3.0666L8.85001 11.9999L1.65 20.9499C1.51156 21.1204 1.40817 21.3166 1.34579 21.5271C1.2834 21.7377 1.26325 21.9585 1.28648 22.1769C1.30971 22.3953 1.37587 22.6069 1.48116 22.7997C1.58645 22.9924 1.72879 23.1624 1.9 23.2999C2.07245 23.4517 2.27439 23.5661 2.49316 23.6361C2.71193 23.7061 2.94281 23.7301 3.1713 23.7066C3.39978 23.6831 3.62095 23.6127 3.82092 23.4997C4.0209 23.3867 4.19535 23.2336 4.33334 23.0499L12.3833 13.0499C12.6285 12.7517 12.7625 12.3776 12.7625 11.9916C12.7625 11.6056 12.6285 11.2315 12.3833 10.9333L4.05 0.933271C3.88281 0.731577 3.67042 0.572136 3.43007 0.467888C3.18972 0.363642 2.92818 0.31752 2.66667 0.333271Z" fill="#E5E5E5"/>
</svg>
