<svg width="13" height="24" viewBox="0 0 13 24" fill="none" xmlns="http://www.w3.org/2000/svg">
<path d="M10.3333 23.6667C10.7227 23.6675 11.1001 23.5319 11.4 23.2834C11.5688 23.1435 11.7083 22.9716 11.8105 22.7777C11.9128 22.5838 11.9758 22.3716 11.9959 22.1533C12.016 21.9351 11.9929 21.7149 11.9278 21.5056C11.8627 21.2963 11.757 21.1018 11.6167 20.9334L4.14999 12.0001L11.35 3.05006C11.4884 2.87958 11.5918 2.68342 11.6542 2.47286C11.7166 2.26229 11.7368 2.04147 11.7135 1.82309C11.6903 1.60471 11.6241 1.39308 11.5188 1.20035C11.4135 1.00762 11.2712 0.837601 11.1 0.700064C10.9276 0.548336 10.7256 0.43389 10.5068 0.363908C10.2881 0.293927 10.0572 0.269921 9.8287 0.293395C9.60022 0.31687 9.37905 0.38732 9.17908 0.500323C8.9791 0.613326 8.80465 0.766442 8.66666 0.950064L0.616658 10.9501C0.371522 11.2483 0.237513 11.6224 0.237513 12.0084C0.237513 12.3944 0.371522 12.7685 0.616658 13.0667L8.95 23.0667C9.11719 23.2684 9.32958 23.4279 9.56993 23.5321C9.81028 23.6364 10.0718 23.6825 10.3333 23.6667Z" fill="#E5E5E5"/>
</svg>
