<svg width="40" height="40" viewBox="0 0 40 40" fill="none" xmlns="http://www.w3.org/2000/svg">
<path d="M8.71662 17.7333C8.85653 17.902 9.02837 18.0415 9.22228 18.1438C9.41619 18.246 9.62837 18.309 9.84666 18.3291C10.065 18.3493 10.2851 18.3261 10.4944 18.2611C10.7038 18.196 10.8982 18.0903 11.0666 17.9499L18.3333 11.8999V31.6666C18.3333 32.1086 18.5089 32.5325 18.8214 32.8451C19.134 33.1577 19.5579 33.3333 20 33.3333C20.442 33.3333 20.8659 33.1577 21.1785 32.8451C21.491 32.5325 21.6666 32.1086 21.6666 31.6666V11.8999L28.9333 17.9499C29.1018 18.09 29.2963 18.1955 29.5056 18.2604C29.7149 18.3253 29.9349 18.3484 30.1532 18.3283C30.3714 18.3082 30.5835 18.2453 30.7774 18.1432C30.9713 18.0411 31.1432 17.9018 31.2833 17.7333C31.4234 17.5647 31.5289 17.3703 31.5938 17.1609C31.6587 16.9516 31.6818 16.7316 31.6617 16.5134C31.6415 16.2952 31.5786 16.083 31.4765 15.8891C31.3744 15.6952 31.2351 15.5233 31.0666 15.3833L21.0666 7.04992L20.8166 6.89992L20.6 6.78326C20.2138 6.63426 19.7861 6.63426 19.4 6.78326L19.1833 6.89992L18.9333 7.04992L8.93328 15.3833C8.76452 15.5232 8.62502 15.695 8.52276 15.8889C8.42051 16.0828 8.35752 16.295 8.33739 16.5133C8.31726 16.7316 8.3404 16.9517 8.40547 17.1611C8.47055 17.3704 8.57628 17.5648 8.71662 17.7333Z" fill="white"/>
</svg>
