<svg width="31" height="31" viewBox="0 0 31 31" fill="none" xmlns="http://www.w3.org/2000/svg">
<g clip-path="url(#clip0)">
<path d="M29.75 6.00082H27.75V3.50082C27.751 3.22469 27.5279 3.00001 27.2518 2.99907C27.2371 2.99901 27.2226 2.99963 27.208 3.00082L25.9035 3.11082C22.7401 3.37244 19.6373 4.12901 16.7085 5.35282L15.25 5.95932L13.793 5.35482C10.8639 4.13082 7.76075 3.37413 4.597 3.11232L3.292 3.00082C3.01681 2.97763 2.77494 3.18188 2.75175 3.45707C2.7505 3.47163 2.74994 3.48626 2.75 3.50082V6.00082H0.75C0.473875 6.00082 0.25 6.22469 0.25 6.50082V27.5008C0.25 27.7769 0.473875 28.0008 0.75 28.0008H29.75C30.0261 28.0008 30.25 27.7769 30.25 27.5008V6.50082C30.25 6.22469 30.0261 6.00082 29.75 6.00082ZM1.25 27.0018V7.00082H2.75V24.5008C2.74906 24.7612 2.94806 24.9787 3.2075 25.0008L4.553 25.1158C4.91969 25.1465 5.28631 25.1843 5.653 25.2293C5.7755 25.2438 5.897 25.2633 6.0195 25.2793C6.262 25.3118 6.5045 25.3443 6.746 25.3828C6.89 25.4058 7.0335 25.4328 7.177 25.4583C7.396 25.4968 7.615 25.5353 7.833 25.5783C7.983 25.6083 8.133 25.6413 8.283 25.6738C8.4935 25.7188 8.704 25.7648 8.9135 25.8148C9.0635 25.8508 9.216 25.8893 9.367 25.9278C9.5735 25.9808 9.7795 26.0348 9.985 26.0918C10.135 26.1338 10.285 26.1778 10.435 26.2218C10.639 26.2821 10.8425 26.3448 11.0455 26.4098C11.1942 26.4571 11.3425 26.5058 11.4905 26.5558C11.695 26.6243 11.898 26.6963 12.101 26.7698C12.245 26.8198 12.3895 26.8743 12.5325 26.9288C12.5945 26.9523 12.656 26.9788 12.7175 27.0018H1.25ZM14.75 26.7508L13.828 26.3658C10.9011 25.1396 7.79987 24.3803 4.6375 24.1158L3.75 24.0418V4.04482L4.513 4.10882C7.57337 4.36169 10.5751 5.09344 13.4085 6.27732L14.75 6.83432V26.7508ZM15.75 26.7508V6.83432L17.093 6.27682C19.9259 5.09319 22.9271 4.36163 25.987 4.10882L26.75 4.04482V24.0403L25.9285 24.1073C22.7642 24.37 19.6602 25.1248 16.7285 26.3443L15.75 26.7508ZM29.25 27.0008H17.79C17.8585 26.9743 17.9265 26.9463 17.995 26.9203C18.145 26.8628 18.295 26.8083 18.4485 26.7538C18.6445 26.6828 18.8413 26.614 19.039 26.5473C19.193 26.4973 19.348 26.4473 19.5025 26.3973C19.7 26.3343 19.8985 26.2743 20.097 26.2153C20.253 26.1693 20.4095 26.1238 20.566 26.0808C20.766 26.0248 20.966 25.9723 21.171 25.9208C21.326 25.8813 21.4815 25.8418 21.6375 25.8048C21.8455 25.7548 22.055 25.7098 22.2645 25.6653C22.4145 25.6328 22.5645 25.5993 22.7175 25.5693C22.9375 25.5258 23.1585 25.4873 23.379 25.4488C23.522 25.4238 23.6645 25.3988 23.808 25.3738C24.0545 25.3348 24.3015 25.3013 24.549 25.2683C24.6675 25.2528 24.786 25.2338 24.905 25.2183C25.2717 25.174 25.6402 25.1361 26.0105 25.1048L27.291 25.0008C27.551 24.9794 27.7509 24.7617 27.75 24.5008V7.00082H29.25V27.0008Z" fill="white"/>
</g>
<defs>
<clipPath id="clip0">
<rect width="30" height="30" fill="white" transform="translate(0.25 0.5)"/>
</clipPath>
</defs>
</svg>
