<svg width="30" height="30" viewBox="0 0 30 30" fill="none" xmlns="http://www.w3.org/2000/svg">
<path d="M25.5974 4.39535C22.7623 1.56025 19.0012 0 14.9927 0C10.9843 0 7.22317 1.56025 4.38808 4.39535C-1.09184 9.87526 -1.47239 18.6469 3.44305 24.5645C2.96102 25.5349 2.18723 26.6638 1.03924 27.2283C0.487443 27.5011 0.176661 28.0909 0.271798 28.6998C0.366936 29.3087 0.83628 29.7844 1.44516 29.8795C1.73057 29.9239 2.13649 29.9683 2.63121 29.9683C3.95679 29.9683 5.91028 29.6575 7.90816 28.2178C10.1344 29.4165 12.5699 30 14.9864 30C18.868 30 22.7115 28.4968 25.6037 25.6047C28.4388 22.7696 29.9991 19.0085 29.9991 15C29.9991 10.9915 28.4325 7.23044 25.5974 4.39535ZM24.386 24.3932C20.1048 28.6744 13.4769 29.5243 8.26334 26.4609C7.92085 26.2579 7.4959 26.3214 7.22317 26.5941C7.1978 26.6068 7.17243 26.6258 7.15341 26.6448C5.43459 27.9767 3.74749 28.2558 2.63121 28.2558H2.62486C3.91239 27.3171 4.72423 25.9218 5.19992 24.8372C5.27603 24.6533 5.28871 24.463 5.24432 24.2854C5.22529 24.1142 5.15552 23.9429 5.03501 23.8034C0.392306 18.5581 0.633321 10.5666 5.59315 5.60677C10.775 0.424947 19.2041 0.424947 24.3796 5.60677C29.5678 10.7886 29.5678 19.2114 24.386 24.3932Z" fill="black"/>
<path d="M14.9923 16.053C15.5738 16.053 16.0452 15.5816 16.0452 15.0001C16.0452 14.4186 15.5738 13.9473 14.9923 13.9473C14.4108 13.9473 13.9395 14.4186 13.9395 15.0001C13.9395 15.5816 14.4108 16.053 14.9923 16.053Z" fill="black"/>
<path d="M20.4215 16.053C21.003 16.053 21.4744 15.5816 21.4744 15.0001C21.4744 14.4186 21.003 13.9473 20.4215 13.9473C19.84 13.9473 19.3687 14.4186 19.3687 15.0001C19.3687 15.5816 19.84 16.053 20.4215 16.053Z" fill="black"/>
<path d="M9.5631 16.053C10.1446 16.053 10.616 15.5816 10.616 15.0001C10.616 14.4186 10.1446 13.9473 9.5631 13.9473C8.98163 13.9473 8.51025 14.4186 8.51025 15.0001C8.51025 15.5816 8.98163 16.053 9.5631 16.053Z" fill="black"/>
</svg>
