<svg width="30" height="30" viewBox="0 0 30 30" fill="none" xmlns="http://www.w3.org/2000/svg">
<path fill-rule="evenodd" clip-rule="evenodd" d="M30 15C30 15 24.375 4.6875 15 4.6875C5.625 4.6875 0 15 0 15C0 15 5.625 25.3125 15 25.3125C24.375 25.3125 30 15 30 15ZM2.19937 15C3.10598 16.3779 4.14871 17.6612 5.31187 18.8306C7.725 21.2475 11.025 23.4375 15 23.4375C18.975 23.4375 22.2731 21.2475 24.69 18.8306C25.8532 17.6612 26.8959 16.3779 27.8025 15C26.8959 13.6221 25.8532 12.3388 24.69 11.1694C22.2731 8.7525 18.9731 6.5625 15 6.5625C11.025 6.5625 7.72688 8.7525 5.31 11.1694C4.14683 12.3388 3.10409 13.6221 2.1975 15H2.19937Z" fill="#C4C4C4"/>
<path fill-rule="evenodd" clip-rule="evenodd" d="M15 10.3125C13.7568 10.3125 12.5645 10.8064 11.6854 11.6854C10.8064 12.5645 10.3125 13.7568 10.3125 15C10.3125 16.2432 10.8064 17.4355 11.6854 18.3146C12.5645 19.1936 13.7568 19.6875 15 19.6875C16.2432 19.6875 17.4355 19.1936 18.3146 18.3146C19.1936 17.4355 19.6875 16.2432 19.6875 15C19.6875 13.7568 19.1936 12.5645 18.3146 11.6854C17.4355 10.8064 16.2432 10.3125 15 10.3125ZM8.4375 15C8.4375 13.2595 9.1289 11.5903 10.3596 10.3596C11.5903 9.1289 13.2595 8.4375 15 8.4375C16.7405 8.4375 18.4097 9.1289 19.6404 10.3596C20.8711 11.5903 21.5625 13.2595 21.5625 15C21.5625 16.7405 20.8711 18.4097 19.6404 19.6404C18.4097 20.8711 16.7405 21.5625 15 21.5625C13.2595 21.5625 11.5903 20.8711 10.3596 19.6404C9.1289 18.4097 8.4375 16.7405 8.4375 15Z" fill="#C4C4C4"/>
</svg>
