<svg width="40" height="40" viewBox="0 0 40 40" fill="none" xmlns="http://www.w3.org/2000/svg">
<path d="M29.0912 3.63623H7.27314C5.55177 3.63623 4.15625 5.03166 4.15625 6.75312V36.8829C4.15625 38.6043 5.55167 39.9998 7.27314 39.9998H22.338C22.7449 39.993 23.1104 39.7494 23.2731 39.3765L31.6887 30.9609C32.0131 30.7865 32.2133 30.446 32.2081 30.0777V6.75312C32.2081 5.03175 30.8127 3.63623 29.0912 3.63623ZM23.377 36.3635V32.2076C23.377 31.6338 23.8421 31.1687 24.416 31.1687H28.6237L23.377 36.3635ZM30.1302 29.0908H24.416C22.6946 29.0908 21.2991 30.4862 21.2991 32.2076V37.9219H7.27314C6.69932 37.9219 6.23417 37.4567 6.23417 36.8829V6.75312C6.23417 6.1793 6.69932 5.71416 7.27314 5.71416H29.0913C29.6652 5.71416 30.1303 6.1793 30.1303 6.75312V29.0908H30.1302Z" fill="black"/>
<path d="M11.1696 20.5195H9.0917C8.51788 20.5195 8.05273 20.9847 8.05273 21.5585C8.05273 22.1323 8.51788 22.5975 9.0917 22.5975H11.1696C11.7434 22.5975 12.2086 22.1323 12.2086 21.5585C12.2086 20.9847 11.7433 20.5195 11.1696 20.5195Z" fill="black"/>
<path d="M26.2342 20.5195H14.286C13.7122 20.5195 13.2471 20.9847 13.2471 21.5585C13.2471 22.1323 13.7122 22.5975 14.286 22.5975H26.2341C26.8079 22.5975 27.273 22.1323 27.273 21.5585C27.273 20.9847 26.808 20.5195 26.2342 20.5195Z" fill="black"/>
<path d="M11.1696 25.7144H9.0917C8.51788 25.7144 8.05273 26.1795 8.05273 26.7533C8.05273 27.3271 8.51788 27.7923 9.0917 27.7923H11.1696C11.7434 27.7923 12.2086 27.3271 12.2086 26.7533C12.2085 26.1795 11.7433 25.7144 11.1696 25.7144Z" fill="black"/>
<path d="M26.2342 25.7144H14.286C13.7122 25.7144 13.2471 26.1795 13.2471 26.7533C13.2471 27.3271 13.7122 27.7923 14.286 27.7923H26.2341C26.8079 27.7923 27.273 27.3271 27.273 26.7533C27.2731 26.1795 26.808 25.7144 26.2342 25.7144Z" fill="black"/>
<path d="M11.1696 15.3247H9.0917C8.51788 15.3247 8.05273 15.7898 8.05273 16.3637C8.05273 16.9375 8.51788 17.4026 9.0917 17.4026H11.1696C11.7434 17.4026 12.2086 16.9375 12.2086 16.3637C12.2086 15.7898 11.7433 15.3247 11.1696 15.3247Z" fill="black"/>
<path d="M26.2342 15.3247H14.286C13.7122 15.3247 13.2471 15.7898 13.2471 16.3637C13.2471 16.9375 13.7122 17.4026 14.286 17.4026H26.2341C26.8079 17.4026 27.273 16.9375 27.273 16.3637C27.273 15.7898 26.808 15.3247 26.2342 15.3247Z" fill="black"/>
<path d="M11.1696 10.1299H9.0917C8.51788 10.1299 8.05273 10.595 8.05273 11.1688C8.05273 11.7427 8.51788 12.2078 9.0917 12.2078H11.1696C11.7434 12.2078 12.2086 11.7427 12.2086 11.1688C12.2086 10.595 11.7433 10.1299 11.1696 10.1299Z" fill="black"/>
<path d="M26.2342 10.1299H14.286C13.7122 10.1299 13.2471 10.595 13.2471 11.1688C13.2471 11.7427 13.7122 12.2078 14.286 12.2078H26.2341C26.8079 12.2078 27.273 11.7427 27.273 11.1688C27.273 10.595 26.808 10.1299 26.2342 10.1299Z" fill="black"/>
<path d="M31.6881 0H8.83095C8.25713 0 7.79199 0.465142 7.79199 1.03896C7.79199 1.61278 8.25713 2.07792 8.83095 2.07792H31.6881C32.8358 2.07792 33.766 3.00821 33.766 4.15585V28.5195C33.766 29.0933 34.2312 29.5585 34.805 29.5585C35.3788 29.5585 35.844 29.0933 35.844 28.5195V4.15585C35.844 1.86067 33.9833 0 31.6881 0Z" fill="black"/>
</svg>
