<svg width="30" height="30" viewBox="0 0 30 30" fill="none" xmlns="http://www.w3.org/2000/svg">
<path d="M23.4375 0H6.5625C2.93813 0 0 2.93813 0 6.5625V23.4375C0 27.0619 2.93813 30 6.5625 30H23.4375C27.0619 30 30 27.0619 30 23.4375V6.5625C30 2.93813 27.0619 0 23.4375 0ZM28.125 23.4375C28.125 26.0263 26.0263 28.125 23.4375 28.125H6.5625C3.97365 28.125 1.875 26.0263 1.875 23.4375V6.5625C1.875 3.97365 3.97365 1.875 6.5625 1.875H23.4375C26.0263 1.875 28.125 3.97365 28.125 6.5625V23.4375Z" fill="#FF5100"/>
<path d="M8.43751 8.60625V5.625H6.56251V8.60625C5.10499 9.14326 4.3588 10.7602 4.89581 12.2177C5.18058 12.9905 5.78972 13.5996 6.56251 13.8844V24.375H8.43751V13.8937C9.89761 13.3638 10.6517 11.7506 10.1217 10.2905C9.83749 9.5073 9.22068 8.89049 8.43751 8.60625Z" fill="#FF5100"/>
<path d="M15.9375 16.1156V16.1063V5.625H14.0625V16.1063C12.605 16.6433 11.8588 18.2602 12.3958 19.7177C12.6806 20.4905 13.2897 21.0996 14.0625 21.3844V24.375H15.9375V21.3937C17.395 20.8567 18.1412 19.2398 17.6042 17.7823C17.3194 17.0095 16.7103 16.4003 15.9375 16.1156Z" fill="#FF5100"/>
<path d="M23.4375 10.4906V10.4813V5.625H21.5625V10.4813C20.105 11.0183 19.3588 12.6352 19.8958 14.0927C20.1806 14.8655 20.7897 15.4746 21.5625 15.7594V24.375H23.4375V15.7687C24.895 15.2317 25.6412 13.6148 25.1042 12.1573C24.8194 11.3845 24.2103 10.7754 23.4375 10.4906Z" fill="#FF5100"/>
</svg>
