<svg width="19" height="19" viewBox="0 0 19 19" fill="none" xmlns="http://www.w3.org/2000/svg">
<path d="M5.9375 16.8514H7.52083V14.4764H12.2708V12.8931H7.52083V11.3097H11.0833C13.266 11.3097 15.0417 9.53402 15.0417 7.3514C15.0417 5.16877 13.266 3.39307 11.0833 3.39307H6.72917C6.5192 3.39307 6.31784 3.47647 6.16937 3.62494C6.02091 3.77341 5.9375 3.97477 5.9375 4.18473V9.7264H3.5625V11.3097H5.9375V12.8931H3.5625V14.4764H5.9375V16.8514ZM7.52083 4.9764H11.0833C12.3927 4.9764 13.4583 6.04198 13.4583 7.3514C13.4583 8.66082 12.3927 9.7264 11.0833 9.7264H7.52083V4.9764Z" fill="#838383"/>
</svg>
