<svg width="21" height="20" viewBox="0 0 21 20" fill="none" xmlns="http://www.w3.org/2000/svg">
<path d="M20.3248 18.98L15.4645 14.1197C16.7683 12.6208 17.5576 10.6652 17.5576 8.52772C17.5576 3.82262 13.7306 0 9.02991 0C4.32481 0 0.502197 3.82705 0.502197 8.52772C0.502197 13.2284 4.32925 17.0554 9.02991 17.0554C11.1674 17.0554 13.123 16.2661 14.6219 14.9623L19.4822 19.8226C19.5975 19.9379 19.7528 20 19.9035 20C20.0543 20 20.2095 19.9424 20.3248 19.8226C20.5554 19.592 20.5554 19.2106 20.3248 18.98ZM1.6951 8.52772C1.6951 4.48337 4.98557 1.19734 9.02548 1.19734C13.0698 1.19734 16.3559 4.4878 16.3559 8.52772C16.3559 12.5676 13.0698 15.8625 9.02548 15.8625C4.98557 15.8625 1.6951 12.5721 1.6951 8.52772Z" fill="white"/>
</svg>
