<svg width="16" height="20" viewBox="0 0 16 20" fill="none" xmlns="http://www.w3.org/2000/svg">
<path d="M7.60863 9.78138C9.8323 9.78138 11.6351 7.59176 11.6351 4.89072C11.6351 2.18961 11.0432 0 7.60863 0C4.17403 0 3.58203 2.18961 3.58203 4.89072C3.58203 7.59176 5.38484 9.78138 7.60863 9.78138Z" fill="#FF5100"/>
<path d="M0.00398605 17.2489C0.00307121 17.0843 0.00215638 17.2025 0.00398605 17.2489V17.2489Z" fill="#FF5100"/>
<path d="M15.2139 17.3776C15.2168 17.3325 15.2149 17.0648 15.2139 17.3776V17.3776Z" fill="#FF5100"/>
<path d="M15.2065 17.0515C15.132 12.3462 14.5174 11.0054 9.81494 10.1567C9.81494 10.1567 9.153 11.0002 7.61013 11.0002C6.06726 11.0002 5.4052 10.1567 5.4052 10.1567C0.75403 10.9962 0.102141 12.317 0.0164257 16.8986C0.00939711 17.2727 0.00613996 17.2924 0.00488281 17.249C0.00516853 17.3303 0.00551126 17.4808 0.00551126 17.7433C0.00551126 17.7433 1.12506 20.0002 7.61013 20.0002C14.0951 20.0002 15.2148 17.7433 15.2148 17.7433C15.2148 17.5747 15.2149 17.4574 15.215 17.3776C15.2138 17.4045 15.2113 17.3524 15.2065 17.0515Z" fill="#FF5100"/>
</svg>
