<svg width="25" height="25" viewBox="0 0 25 25" fill="none" xmlns="http://www.w3.org/2000/svg">
<path d="M13.6719 23.4375V21.3438C13.6719 21.2516 13.7045 21.1625 13.7639 21.0921C13.8233 21.0217 13.9057 20.9746 13.9965 20.959C15.0746 20.7706 16.1063 20.3762 17.0352 19.7973L15.893 18.6551C14.408 19.4746 12.677 19.7303 11.0185 19.3753C9.35993 19.0204 7.88531 18.0785 6.86585 16.7229C5.84638 15.3674 5.35062 13.6894 5.46973 11.9974C5.58884 10.3055 6.31483 8.71349 7.51416 7.51416C8.71349 6.31483 10.3055 5.58884 11.9974 5.46973C13.6894 5.35062 15.3674 5.84638 16.7229 6.86585C18.0785 7.88531 19.0204 9.35993 19.3753 11.0185C19.7303 12.677 19.4746 14.408 18.6551 15.893L19.7973 17.0352C20.3762 16.1063 20.7706 15.0746 20.959 13.9965C20.9746 13.9057 21.0217 13.8233 21.0921 13.7639C21.1625 13.7045 21.2516 13.6719 21.3438 13.6719H23.4375V11.3281H21.3438C21.2516 11.3281 21.1625 11.2955 21.0921 11.2361C21.0217 11.1767 20.9746 11.0943 20.959 11.0035C20.7433 9.77127 20.2586 8.60173 19.5395 7.57812C19.4866 7.5029 19.462 7.41144 19.4699 7.31983C19.4778 7.22823 19.5178 7.14236 19.5828 7.07734L21.0613 5.59609L19.4059 3.94063L17.9246 5.41914C17.8596 5.48415 17.7737 5.52414 17.6821 5.53207C17.5905 5.54 17.4991 5.51536 17.4238 5.4625C16.3996 4.74308 15.2294 4.25839 13.9965 4.04297C13.9054 4.02735 13.8227 3.97991 13.7633 3.9091C13.7039 3.83829 13.6715 3.7487 13.6719 3.65625V1.5625H11.3281V3.65625C11.3281 3.74836 11.2955 3.83749 11.2361 3.9079C11.1767 3.9783 11.0943 4.02545 11.0035 4.04102C9.77127 4.25671 8.60173 4.74139 7.57812 5.46055C7.5029 5.51341 7.41144 5.53805 7.31983 5.53011C7.22823 5.52218 7.14236 5.4822 7.07734 5.41719L5.59609 3.93867L3.94063 5.59414L5.41914 7.07539C5.48415 7.14041 5.52414 7.22628 5.53207 7.31788C5.54 7.40948 5.51536 7.50095 5.4625 7.57617C4.74308 8.60035 4.25839 9.77059 4.04297 11.0035C4.02735 11.0946 3.97991 11.1773 3.9091 11.2367C3.83829 11.2961 3.7487 11.3285 3.65625 11.3281H1.5625V13.6719H3.65625C3.74836 13.6719 3.83749 13.7045 3.9079 13.7639C3.9783 13.8233 4.02545 13.9057 4.04102 13.9965C4.25644 15.2294 4.74113 16.3996 5.46055 17.4238C5.51341 17.4991 5.53805 17.5905 5.53011 17.6821C5.52218 17.7737 5.4822 17.8596 5.41719 17.9246L3.93867 19.4059L5.59414 21.0613L7.07539 19.5828C7.14041 19.5178 7.22628 19.4778 7.31788 19.4699C7.40948 19.462 7.50095 19.4866 7.57617 19.5395C8.60035 20.2589 9.77059 20.7436 11.0035 20.959C11.0943 20.9746 11.1767 21.0217 11.2361 21.0921C11.2955 21.1625 11.3281 21.2516 11.3281 21.3438V23.4375H13.6719Z" fill="#FF5100"/>
<path d="M22.9962 21.3385L15.5169 13.8588C15.3063 13.6479 15.1468 13.3916 15.0505 13.1095C14.9541 12.8275 14.9235 12.5271 14.961 12.2315C15.0218 11.7248 14.9575 11.211 14.7737 10.735C14.5899 10.259 14.2923 9.83531 13.9068 9.50096C13.5214 9.16662 13.0598 8.93184 12.5626 8.81717C12.0654 8.7025 11.5477 8.71143 11.0548 8.84319L12.7782 10.5662C12.8515 10.6395 12.8926 10.7388 12.8927 10.8424V12.4998C12.8927 12.6034 12.8515 12.7028 12.7782 12.776C12.705 12.8493 12.6056 12.8905 12.502 12.8905H10.8427C10.7391 12.8904 10.6397 12.8493 10.5665 12.776L8.84343 11.0545C8.71168 11.5475 8.70274 12.0652 8.81741 12.5624C8.93209 13.0596 9.16687 13.5211 9.50121 13.9066C9.83555 14.292 10.2593 14.5897 10.7353 14.7735C11.2113 14.9572 11.7251 15.0215 12.2317 14.9608C12.3126 14.9511 12.394 14.9463 12.4755 14.9463C12.7322 14.9451 12.9867 14.9947 13.2241 15.0923C13.4616 15.19 13.6774 15.3336 13.8591 15.5151L21.3387 22.9959C21.5585 23.2157 21.8566 23.3392 22.1675 23.3392C22.4783 23.3392 22.7764 23.2157 22.9962 22.9959C23.216 22.7761 23.3394 22.478 23.3394 22.1672C23.3394 21.8564 23.216 21.5583 22.9962 21.3385ZM15.2618 15.2619C15.1885 15.3352 15.0892 15.3763 14.9856 15.3763C14.882 15.3763 14.7827 15.3352 14.7094 15.2619L14.4333 14.9858C14.396 14.9497 14.3662 14.9066 14.3457 14.859C14.3253 14.8113 14.3145 14.7601 14.314 14.7082C14.3136 14.6563 14.3235 14.6049 14.3431 14.5569C14.3628 14.5089 14.3918 14.4653 14.4284 14.4286C14.4651 14.3919 14.5087 14.3629 14.5567 14.3433C14.6047 14.3236 14.6562 14.3137 14.708 14.3142C14.7599 14.3146 14.8112 14.3254 14.8588 14.3459C14.9065 14.3664 14.9496 14.3961 14.9856 14.4334L15.2618 14.7096C15.3351 14.7828 15.3763 14.8821 15.3764 14.9857C15.3764 15.0893 15.3354 15.1886 15.2622 15.2619H15.2618ZM21.0626 21.0623C20.9893 21.1356 20.89 21.1767 20.7864 21.1767C20.6828 21.1767 20.5835 21.1356 20.5102 21.0623L15.8145 16.367C15.7412 16.2937 15.7001 16.1943 15.7001 16.0906C15.7001 15.987 15.7412 15.8876 15.8145 15.8143C15.8878 15.741 15.9872 15.6998 16.0909 15.6998C16.1946 15.6998 16.294 15.741 16.3673 15.8143L21.0626 20.51C21.1358 20.5832 21.1769 20.6826 21.1769 20.7862C21.1769 20.8897 21.1358 20.9891 21.0626 21.0623ZM22.4438 22.4436C22.3706 22.5168 22.2712 22.5579 22.1677 22.5579C22.0641 22.5579 21.9647 22.5168 21.8915 22.4436L21.6149 22.1674C21.5416 22.0941 21.5004 21.9947 21.5004 21.891C21.5004 21.7874 21.5416 21.688 21.6149 21.6147C21.6882 21.5414 21.7876 21.5002 21.8913 21.5002C21.9949 21.5002 22.0944 21.5414 22.1677 21.6147L22.4438 21.8912C22.5171 21.9645 22.5582 22.0638 22.5582 22.1674C22.5582 22.271 22.5171 22.3703 22.4438 22.4436Z" fill="#FF5100"/>
<path d="M12.5001 6.25C11.556 6.24954 10.624 6.46298 9.77422 6.87429C8.92441 7.2856 8.17882 7.8841 7.59344 8.62483C7.00806 9.36557 6.59811 10.2293 6.39435 11.1512C6.1906 12.073 6.19835 13.0291 6.41701 13.9475C6.63567 14.866 7.05957 15.7229 7.65687 16.4541C8.25417 17.1853 9.00935 17.7716 9.86572 18.1691C10.7221 18.5666 11.6574 18.7649 12.6014 18.7491C13.5453 18.7334 14.4735 18.504 15.3161 18.0781L13.3067 16.0691C13.1791 15.9427 13.0242 15.8472 12.8539 15.7899C12.6836 15.7325 12.5025 15.7149 12.3243 15.7383C11.6302 15.8217 10.9263 15.7171 10.2864 15.4355C9.6465 15.1538 9.09398 14.7055 8.6866 14.1373C8.27923 13.569 8.03196 12.9018 7.97063 12.2054C7.90931 11.5089 8.03618 10.8088 8.33799 10.1781C8.36501 10.1218 8.40514 10.0728 8.455 10.0352C8.50486 9.99765 8.56301 9.97256 8.62457 9.96208C8.68613 9.9516 8.7493 9.95603 8.8088 9.97499C8.86829 9.99396 8.92237 10.0269 8.96651 10.0711L11.0044 12.1094H12.1095V11.0043L10.0712 8.96641C10.027 8.92228 9.99406 8.86819 9.97509 8.8087C9.95612 8.74921 9.9517 8.68603 9.96218 8.62447C9.97266 8.56291 9.99775 8.50476 10.0353 8.4549C10.0729 8.40504 10.1219 8.36491 10.1782 8.33789C10.8089 8.03612 11.5091 7.90927 12.2055 7.97061C12.902 8.03195 13.5692 8.27921 14.1374 8.68657C14.7056 9.09393 15.154 9.64643 15.4357 10.2863C15.7174 10.9262 15.8221 11.63 15.7388 12.3242C15.7153 12.5023 15.7328 12.6835 15.7901 12.8537C15.8474 13.024 15.9429 13.1789 16.0692 13.3066L18.0782 15.316C18.5598 14.3633 18.7892 13.3032 18.7446 12.2367C18.7 11.1701 18.3829 10.1328 17.8235 9.22369C17.2641 8.31454 16.4811 7.56387 15.5492 7.0433C14.6173 6.52273 13.5676 6.24961 12.5001 6.25Z" fill="#FF5100"/>
</svg>
