<svg width="30" height="30" viewBox="0 0 30 30" xmlns="http://www.w3.org/2000/svg">
<path d="M24.7016 0H5.2976C3.43717 0 1.92921 1.50814 1.92921 3.36888V26.6312C1.92921 28.4919 3.43717 30 5.2976 30H24.7016C26.5627 30 28.0708 28.4919 28.0708 26.6312V3.36888C28.0708 1.50814 26.5627 0 24.7016 0ZM21.6354 2.13663C22.5036 2.13663 23.2066 2.84013 23.2066 3.70757C23.2066 4.5752 22.5036 5.2787 21.6354 5.2787C20.7675 5.2787 20.0645 4.57526 20.0645 3.70757C20.0645 2.84013 20.7675 2.13663 21.6354 2.13663ZM16.6081 2.13663C17.4763 2.13663 18.1795 2.84013 18.1795 3.70757C18.1795 4.5752 17.4763 5.2787 16.6081 5.2787C15.7404 5.2787 15.0374 4.57526 15.0374 3.70757C15.0374 2.84013 15.7404 2.13663 16.6081 2.13663ZM14.9999 26.4818C10.6442 26.4818 7.11364 22.951 7.11364 18.5954C7.11364 14.2397 10.6442 10.7089 14.9999 10.7089C19.3547 10.7089 22.8862 14.2398 22.8862 18.5954C22.8862 22.9511 19.3547 26.4818 14.9999 26.4818ZM24.0126 8.672H5.98841C5.43214 8.672 4.98254 8.22179 4.98254 7.66649C4.98254 7.11126 5.43208 6.66105 5.98841 6.66105H24.0126C24.5682 6.66105 25.0179 7.11126 25.0179 7.66649C25.0179 8.22179 24.5682 8.672 24.0126 8.672Z"/>
<path d="M14.9999 12.8955C11.8567 12.8955 9.30038 15.4523 9.30038 18.5954C9.30038 21.7383 11.8567 24.2952 14.9999 24.2952C18.1431 24.2952 20.6995 21.7383 20.6995 18.5954C20.6995 15.4523 18.1431 12.8955 14.9999 12.8955ZM14.9999 14.6551C17.1726 14.6551 18.9403 16.423 18.9403 18.5955C18.9403 19.1532 18.8202 19.6825 18.6105 20.1635C17.5216 19.9302 16.552 19.9809 15.2756 20.1708C14.6251 20.2681 13.8165 20.1016 13.2406 19.7831C12.3714 19.3019 11.7649 18.9951 11.0918 18.9204C11.083 18.8114 11.0597 18.7069 11.0597 18.5955C11.0597 16.423 12.8268 14.6551 14.9999 14.6551Z"/>
</svg>
