<svg width="30" height="30" viewBox="0 0 30 30" xmlns="http://www.w3.org/2000/svg">  
<path d="M24.3749 0H5.62506C4.17111 0 2.98828 1.18283 2.98828 2.63672V5.96098H27.0117V2.63672C27.0117 1.18283 25.8289 0 24.3749 0ZM18.2227 3.86719C17.7373 3.86719 17.3438 3.47367 17.3438 2.98828C17.3438 2.50289 17.7373 2.10938 18.2227 2.10938C18.708 2.10938 19.1016 2.50289 19.1016 2.98828C19.1016 3.47367 18.708 3.86719 18.2227 3.86719ZM21.7383 3.86719C21.2529 3.86719 20.8594 3.47367 20.8594 2.98828C20.8594 2.50289 21.2529 2.10938 21.7383 2.10938C22.2237 2.10938 22.6172 2.50289 22.6172 2.98828C22.6172 3.47367 22.2237 3.86719 21.7383 3.86719Z"/>
<path d="M2.98828 7.71875V27.3632C2.98828 28.8171 4.17111 30 5.62506 30H24.375C25.8289 30 27.0117 28.8171 27.0117 27.3632V7.71875H2.98828ZM14.9999 25.6054C10.7998 25.6054 7.3827 22.1884 7.3827 17.9882C7.3827 13.7881 10.7998 10.3711 14.9999 10.3711C19.2 10.3711 22.6171 13.7881 22.6171 17.9882C22.6171 22.1884 19.1999 25.6054 14.9999 25.6054Z"/>
<path d="M14.9999 13.8867C12.7383 13.8867 10.8984 15.7266 10.8984 17.9883C10.8984 20.2499 12.7383 22.0898 14.9999 22.0898C17.2614 22.0898 19.1013 20.2499 19.1013 17.9883C19.1013 15.7266 17.2614 13.8867 14.9999 13.8867Z"/>
</svg>
