<svg width="30" height="30" viewBox="0 0 30 30" fill="none" xmlns="http://www.w3.org/2000/svg">
<path d="M19.375 11.25C19.0296 11.25 18.75 11.5296 18.75 11.875V16.875C18.75 17.2205 19.0296 17.5 19.375 17.5C19.7205 17.5 20 17.2205 20 16.875V11.875C20 11.5296 19.7205 11.25 19.375 11.25Z" fill="#C4C4C4"/>
<path d="M9.81691 11.4331C9.57275 11.189 9.17725 11.189 8.93314 11.4331L6.43312 13.9331C6.18896 14.1773 6.18896 14.5728 6.43312 14.8169C6.55517 14.939 6.71514 15 6.87504 15C7.03494 15 7.19484 14.939 7.31695 14.8169L9.81697 12.3169C10.061 12.0728 10.061 11.6773 9.81691 11.4331Z" fill="#C4C4C4"/>
<path d="M10.1831 13.9331L8.93314 15.1831C8.68898 15.4273 8.68898 15.8228 8.93314 16.0669C9.0552 16.1889 9.21516 16.25 9.37506 16.25C9.53496 16.25 9.69486 16.1889 9.81697 16.0669L11.067 14.8169C11.3111 14.5727 11.3111 14.1772 11.067 13.9331C10.8227 13.689 10.4272 13.689 10.1831 13.9331Z" fill="#C4C4C4"/>
<path d="M27.5 3.75H2.50002C1.12119 3.75 0 4.87119 0 6.25002V23.75C0 25.1288 1.12119 26.25 2.50002 26.25H27.5C28.8788 26.25 30 25.1288 30 23.75V6.25002C30 4.87119 28.8788 3.75 27.5 3.75ZM22.5 21.875C22.5 22.2204 22.2204 22.5 21.875 22.5H4.37502C4.02955 22.5 3.75 22.2204 3.75 21.875V8.12502C3.75 7.77955 4.02955 7.5 4.37502 7.5H21.875C22.2205 7.5 22.5001 7.77955 22.5001 8.12502V21.875H22.5ZM26.875 21.25H25.625C25.2796 21.25 25 20.9705 25 20.625C25 20.2795 25.2796 20 25.625 20H26.875C27.2205 20 27.5 20.2795 27.5 20.625C27.5 20.9705 27.2205 21.25 26.875 21.25ZM26.25 18.75C25.5609 18.75 25 18.1891 25 17.5C25 16.811 25.5609 16.25 26.25 16.25C26.9391 16.25 27.5 16.811 27.5 17.5C27.5 18.1891 26.9391 18.75 26.25 18.75ZM26.25 15C25.5609 15 25 14.4391 25 13.75C25 13.061 25.5609 12.5 26.25 12.5C26.9391 12.5 27.5 13.061 27.5 13.75C27.5 14.4391 26.9391 15 26.25 15ZM26.25 11.25C25.5609 11.25 25 10.6891 25 10C25 9.31096 25.5609 8.75004 26.25 8.75004C26.9391 8.75004 27.5 9.31096 27.5 10C27.5 10.6891 26.9391 11.25 26.25 11.25Z" fill="#C4C4C4"/>
</svg>
