<?xml version="1.0" encoding="utf-8"?><svg viewBox="0 0 31 31" xmlns="http://www.w3.org/2000/svg" xmlns:xlink="http://www.w3.org/1999/xlink"><style>:root>svg{display:none}:root>svg:target{display:block}</style><svg fill="none" viewBox="0 0 24 24" id="align-down" xmlns="http://www.w3.org/2000/svg"><path d="M12 16a1 1 0 01-.64-.23l-6-5a1.001 1.001 0 111.28-1.54L12 13.71l5.36-4.32a1 1 0 011.41.15 1 1 0 01-.14 1.46l-6 4.83A1 1 0 0112 16z" fill="#000"/></svg><svg fill="none" viewBox="0 0 13 24" id="align-left" xmlns="http://www.w3.org/2000/svg"><path d="M10.333 23.667a1.666 1.666 0 001.284-2.734L4.15 12l7.2-8.95A1.668 1.668 0 0011.1.7a1.666 1.666 0 00-2.433.25l-8.05 10a1.667 1.667 0 000 2.117l8.333 10a1.666 1.666 0 001.383.6z" fill="#E5E5E5"/></svg><svg fill="none" viewBox="0 0 13 24" id="align-right" xmlns="http://www.w3.org/2000/svg"><path d="M2.667.333a1.667 1.667 0 00-1.284 2.734L8.85 12l-7.2 8.95a1.667 1.667 0 00.25 2.35 1.666 1.666 0 002.433-.25l8.05-10a1.666 1.666 0 000-2.117L4.05.933a1.667 1.667 0 00-1.383-.6z" fill="#E5E5E5"/></svg><svg fill="none" viewBox="0 0 31 31" id="book" xmlns="http://www.w3.org/2000/svg"><g clip-path="url(#dclip0)"><path d="M29.75 6h-2V3.5a.5.5 0 00-.542-.5l-1.304.11a30.334 30.334 0 00-9.195 2.243l-1.459.606-1.457-.604a30.34 30.34 0 00-9.196-2.243l-1.305-.111a.5.5 0 00-.542.5V6h-2a.5.5 0 00-.5.5v21a.5.5 0 00.5.5h29a.5.5 0 00.5-.5v-21a.5.5 0 00-.5-.5zM1.25 27.003V7h1.5v17.5a.5.5 0 00.458.5l1.345.115c.367.03.733.068 1.1.113.123.015.244.034.367.05.242.033.485.065.726.104.144.023.287.05.431.075.219.039.438.077.656.12.15.03.3.063.45.096a27.295 27.295 0 012.763.736 26.266 26.266 0 011.055.36c.144.05.288.104.431.159.063.023.124.05.185.073H1.25zm13.5-.251l-.922-.385a30.326 30.326 0 00-9.19-2.25l-.888-.074V4.045l.763.064a29.34 29.34 0 018.896 2.168l1.341.557v19.917zm1 0V6.834l1.343-.557a29.336 29.336 0 018.894-2.168l.763-.064V24.04l-.822.067a30.531 30.531 0 00-9.2 2.237l-.978.407zm13.5.25H17.79c.069-.027.137-.055.205-.08a28.235 28.235 0 011.044-.373l.463-.15a31.294 31.294 0 012.136-.593c.207-.05.417-.095.627-.14.15-.032.3-.066.453-.096.22-.043.44-.082.661-.12l.429-.075c.247-.04.494-.073.741-.106.119-.015.237-.034.356-.05.367-.044.735-.082 1.105-.113L27.291 25a.5.5 0 00.459-.5V7h1.5v20z" fill="#fff"/></g><defs><clipPath id="dclip0"><path fill="#fff" transform="translate(.25 .5)" d="M0 0h30v30H0z"/></clipPath></defs></svg><svg fill="none" viewBox="0 0 22 22" id="home" xmlns="http://www.w3.org/2000/svg"><path d="M11 6.572l-7.567 5.823v7.8h6.08V14.48h3.23v5.717h5.824v-7.801L11 6.572z" fill="#fff"/><path d="M18.884 7.869V3.88h-3.187v1.537L11 1.804 0 10.266l1.518 1.974L11 4.944l9.482 7.296L22 10.266l-3.116-2.397z" fill="#fff"/></svg><svg fill="none" viewBox="0 0 13 7" id="triangle-down" xmlns="http://www.w3.org/2000/svg"><path d="M12.75.375L6.5 6.625.25.375h12.5z" fill="#fff"/></svg><svg fill="none" viewBox="0 0 5 11" id="triangle-right" xmlns="http://www.w3.org/2000/svg"><path d="M0 0l5 5.5L0 11V0z" fill="#000"/></svg><svg fill="none" viewBox="0 0 25 25" id="wrench" xmlns="http://www.w3.org/2000/svg"><path d="M13.672 23.438v-2.094a.39.39 0 01.324-.385 8.517 8.517 0 003.04-1.162l-1.143-1.142a7.04 7.04 0 112.762-2.762l1.142 1.142a8.517 8.517 0 001.162-3.039.39.39 0 01.385-.324h2.093v-2.344h-2.093a.39.39 0 01-.385-.324 8.512 8.512 0 00-1.42-3.426.39.39 0 01.044-.5l1.478-1.482-1.655-1.655-1.481 1.478a.39.39 0 01-.501.044 8.511 8.511 0 00-3.428-1.42.39.39 0 01-.324-.387V1.562h-2.344v2.094a.39.39 0 01-.324.385 8.511 8.511 0 00-3.426 1.42.39.39 0 01-.5-.044L5.595 3.94 3.941 5.594l1.478 1.481a.39.39 0 01.044.501 8.511 8.511 0 00-1.42 3.428.39.39 0 01-.387.324H1.562v2.344h2.094a.39.39 0 01.385.324 8.511 8.511 0 001.42 3.428.39.39 0 01-.044.5L3.94 19.407l1.655 1.655 1.481-1.478a.39.39 0 01.501-.043 8.511 8.511 0 003.428 1.419.39.39 0 01.324.385v2.093h2.344z" fill="#FF5100"/><path d="M22.996 21.338l-7.48-7.48a1.953 1.953 0 01-.555-1.627 3.122 3.122 0 00-3.906-3.388l1.723 1.723a.391.391 0 01.115.276V12.5a.39.39 0 01-.391.39h-1.66a.39.39 0 01-.276-.114l-1.723-1.721a3.122 3.122 0 003.389 3.906 1.945 1.945 0 011.627.554l7.48 7.48a1.172 1.172 0 001.657-1.657zm-7.734-6.076a.39.39 0 01-.553 0l-.276-.276a.393.393 0 01-.005-.557.39.39 0 01.558.004l.276.277a.39.39 0 010 .552zm5.8 5.8a.39.39 0 01-.552 0l-4.696-4.695a.39.39 0 01.553-.553l4.696 4.696a.39.39 0 010 .552zm1.382 1.382a.39.39 0 01-.552 0l-.277-.277a.39.39 0 11.553-.552l.276.276a.39.39 0 010 .553z" fill="#FF5100"/><path d="M12.5 6.25a6.25 6.25 0 102.816 11.828l-2.01-2.009a1.176 1.176 0 00-.982-.33 3.904 3.904 0 01-3.986-5.56.39.39 0 01.629-.108l2.037 2.038h1.106v-1.105L10.07 8.966a.39.39 0 01.107-.628 3.904 3.904 0 015.56 3.986 1.177 1.177 0 00.331.983l2.01 2.009A6.247 6.247 0 0012.5 6.25z" fill="#FF5100"/></svg></svg>