<svg viewBox="0 0 210 60" fill="none" xmlns="http://www.w3.org/2000/svg"><path d="M51.15 11.4c-.033-.067-.083-.1-.15-.1-.067 0-.117.017-.15.05L49 12.65c-.633.4-1.2.333-1.7-.2l-2.4-2.35c-.5-.5-.533-1.067-.1-1.7l1.25-1.8a.444.444 0 00.05-.2c0-.067-.033-.117-.1-.15L42.8 4.1h-.05c-.033-.033-.083-.033-.15 0-.067 0-.117.033-.15.1l-1.2 1.85c-.4.633-.933.817-1.6.55l-3.1-1.3c-.667-.3-.933-.8-.8-1.5l.5-2.2c0-.067-.017-.117-.05-.15-.033-.067-.083-.1-.15-.1L32.25.6c-.033-.033-.083-.017-.15.05-.067.033-.1.083-.1.15l-.35 2.15c-.167.733-.617 1.1-1.35 1.1h-3.35c-.733 0-1.167-.367-1.3-1.1L25.3.8a.582.582 0 00-.1-.15c-.067-.067-.133-.083-.2-.05l-3.75.75c-.067 0-.117.033-.15.1-.033.033-.05.083-.05.15l.5 2.2c.133.7-.133 1.2-.8 1.5l-3.1 1.3c-.667.267-1.2.083-1.6-.55H16L14.85 4.2c-.033-.067-.083-.1-.15-.1a.213.213 0 00-.2 0l-3.2 2.15c-.067.033-.1.083-.1.15 0 .067.017.133.05.2l1.3 1.8c.4.633.333 1.2-.2 1.7L10 12.45c-.533.533-1.1.6-1.7.2l-1.8-1.3a.444.444 0 00-.2-.05.582.582 0 00-.15.1l-2.1 3.2H4a.212.212 0 000 .2c0 .067.033.117.1.15L6 16.1v.05c.6.4.767.933.5 1.6l-1.3 3.1c-.267.667-.767.933-1.5.8l-2.2-.5c-.067 0-.117.017-.15.05-.067.033-.1.083-.1.15L.5 25.1a.212.212 0 000 .2.54.54 0 00.2.1l2.15.35c.733.133 1.1.567 1.1 1.3v3.35c0 .733-.367 1.183-1.1 1.35L.7 32.1a.543.543 0 00-.2.1.212.212 0 000 .2l.75 3.75c0 .067.033.117.1.15.033.033.083.05.15.05l2.2-.5c.7-.133 1.2.133 1.5.8l1.3 3.1c.267.667.083 1.217-.55 1.65L4.1 42.55c-.067.033-.1.083-.1.15a.212.212 0 000 .2h.05l2.1 3.2a.582.582 0 00.15.1h.05a.384.384 0 00.15-.05l1.8-1.3c.633-.4 1.2-.35 1.7.15l2.35 2.4c.533.5.6 1.067.2 1.7l-1.3 1.8c-.033.033-.05.1-.05.2l.1.1v.05l3.2 2.1c.067.033.133.05.2.05s.117-.033.15-.1L16 51.45v-.05c.4-.6.95-.767 1.65-.5l3.1 1.3c.667.267.933.767.8 1.5l-.5 2.15c0 .067.017.133.05.2s.083.1.15.1l3.75.75a.444.444 0 00.2-.05.58.58 0 00.1-.15l.35-2.2c.133-.733.567-1.1 1.3-1.1h3.35c.733 0 1.183.367 1.35 1.1l.35 2.2c0 .067.033.117.1.15.067.033.117.05.15.05h.05l3.75-.75c.067 0 .117-.033.15-.1a.444.444 0 00.05-.2l-.5-2.15c-.133-.733.133-1.233.8-1.5L39 51.15a.326.326 0 00.15-.15c0-.067-.033-.133-.1-.2l-3.85-3.9c-.067-.067-.15-.083-.25-.05-1.933.633-3.983.95-6.15.95-5.3 0-9.817-1.867-13.55-5.6-3.767-3.733-5.65-8.25-5.65-13.55 0-5.267 1.883-9.783 5.65-13.55 3.733-3.733 8.25-5.6 13.55-5.6 5.267 0 9.767 1.867 13.5 5.6 3.767 3.767 5.65 8.283 5.65 13.55 0 2.1-.3 4.067-.9 5.9 0 .1.033.183.1.25l3.8 3.8c.033.067.1.1.2.1a.326.326 0 00.15-.15l.8-1.9c.267-.667.767-.933 1.5-.8l2.2.5a.385.385 0 00.15-.05c.067-.033.1-.083.1-.15l.75-3.75v-.05a.385.385 0 00-.05-.15.58.58 0 00-.15-.1l-2.15-.35c-.733-.167-1.1-.617-1.1-1.35v-3.35c0-.733.35-1.167 1.05-1.3h.05l2.15-.35a.58.58 0 00.15-.1.444.444 0 00.05-.2l-.75-3.75c0-.067-.033-.117-.1-.15a.385.385 0 00-.15-.05l-2.2.5c-.733.133-1.233-.133-1.5-.8l-1.3-3.1c-.267-.667-.083-1.2.55-1.6v-.05l1.85-1.15a.58.58 0 00.1-.15.444.444 0 00-.05-.2l-2.1-3.2zM112.95.5H101.4L87.1 27.1c-.033.067-.083.1-.15.1-.033.033-.083.033-.15 0-.067 0-.117-.033-.15-.1L72.35.5H60.8L80.9 38c.4.733.9 1.417 1.5 2.05 0 .033.017.05.05.05.333.333.7.633 1.1.9 1 .633 2.117.95 3.35.95 1.2 0 2.3-.317 3.3-.95.367-.267.733-.567 1.1-.9 0-.033.017-.05.05-.05.6-.633 1.1-1.317 1.5-2.05L112.95.5zm47 10.6c0-2.933-1.033-5.433-3.1-7.5s-4.567-3.1-7.5-3.1H116.9v10.05h30.5c.767 0 1.417.283 1.95.85.6.567.9 1.267.9 2.1 0 .8-.283 1.483-.85 2.05l-.05.05c-.567.567-1.25.85-2.05.85h-30.4v24.8h32.75c3-.067 5.567-1.167 7.7-3.3 2.2-2.2 3.3-4.867 3.3-8 0-3.1-1.1-5.767-3.3-8a11.074 11.074 0 00-2-1.6.324.324 0 01-.15-.15v-.15c.033-.067.067-.1.1-.1.533-.4 1.05-.833 1.55-1.3 2.067-2.1 3.1-4.617 3.1-7.55zm-32.7 20.05c-.067 0-.133-.033-.2-.1-.033-.033-.05-.083-.05-.15v-6c0-.067.017-.117.05-.15.067-.067.133-.1.2-.1H147c.9 0 1.667.317 2.3.95.633.633.95 1.4.95 2.3 0 .9-.317 1.667-.95 2.3-.633.633-1.4.95-2.3.95h-19.75zm82-20.6V.5h-47.2v10.05h17.9c.067 0 .133.017.2.05.033.067.05.133.05.2v30.45h10.9V10.8c0-.067.033-.133.1-.2.033-.033.083-.05.15-.05h17.9z" fill="#232323"/><path d="M47.65 41.65c-.033 0-.067-.017-.1-.05L35.4 29.5c-.033-.033-.05-.083-.05-.15-.033-.033-.033-.067 0-.1.267-.9.4-1.867.4-2.9 0-2.5-.883-4.65-2.65-6.45-1.8-1.767-3.95-2.65-6.45-2.65-.867 0-1.683.1-2.45.3l4.5 4.5c.467.5.717 1.1.75 1.8 0 .7-.25 1.3-.75 1.8v-.05l-2.85 2.85c-.5.5-1.1.75-1.8.75s-1.283-.25-1.75-.75l-4.5-4.5a9.47 9.47 0 00-.3 2.4c0 2.533.9 4.7 2.7 6.5 1.767 1.767 3.917 2.65 6.45 2.65a9.8 9.8 0 002.65-.35h.1c.033 0 .067.017.1.05l12.25 12.3.1.1v.1c-.267.867-.4 1.75-.4 2.65 0 2.533.9 4.7 2.7 6.5 1.767 1.767 3.917 2.65 6.45 2.65.867 0 1.683-.1 2.45-.3l-4.5-4.5c-.5-.5-.75-1.1-.75-1.8s.25-1.3.75-1.8l2.8-2.75c.5-.5 1.1-.75 1.8-.75s1.3.25 1.8.75l4.5 4.45c.2-.767.3-1.583.3-2.45 0-2.5-.9-4.65-2.7-6.45-1.8-1.767-3.95-2.65-6.45-2.65-1 0-1.933.133-2.8.4-.067.033-.117.033-.15 0z" fill="#fff"/><path d="M47.65 41.65c-.033 0-.067-.017-.1-.05L35.4 29.5c-.033-.033-.05-.083-.05-.15-.033-.033-.033-.067 0-.1.267-.9.4-1.867.4-2.9 0-2.5-.883-4.65-2.65-6.45-1.8-1.767-3.95-2.65-6.45-2.65-.867 0-1.683.1-2.45.3l4.5 4.5c.467.5.717 1.1.75 1.8 0 .7-.25 1.3-.75 1.8v-.05l-2.85 2.85c-.5.5-1.1.75-1.8.75s-1.283-.25-1.75-.75l-4.5-4.5a9.47 9.47 0 00-.3 2.4c0 2.533.9 4.7 2.7 6.5 1.767 1.767 3.917 2.65 6.45 2.65a9.8 9.8 0 002.65-.35h.1c.033 0 .067.017.1.05l12.25 12.3.1.1v.1c-.267.867-.4 1.75-.4 2.65 0 2.533.9 4.7 2.7 6.5 1.767 1.767 3.917 2.65 6.45 2.65.867 0 1.683-.1 2.45-.3l-4.5-4.5c-.5-.5-.75-1.1-.75-1.8s.25-1.3.75-1.8l2.8-2.75c.5-.5 1.1-.75 1.8-.75s1.3.25 1.8.75l4.5 4.45c.2-.767.3-1.583.3-2.45 0-2.5-.9-4.65-2.7-6.45-1.8-1.767-3.95-2.65-6.45-2.65-1 0-1.933.133-2.8.4-.067.033-.117.033-.15 0z" fill="#fff"/><path d="M44.5 32.25a17.57 17.57 0 00.35-3.55c0-4.467-1.583-8.267-4.75-11.4-3.133-3.133-6.917-4.7-11.35-4.7-4.467 0-8.267 1.567-11.4 4.7-3.167 3.133-4.75 6.933-4.75 11.4 0 4.433 1.583 8.233 4.75 11.4 3.133 3.133 6.933 4.7 11.4 4.7 1.333 0 2.617-.15 3.85-.45l-2.3-2.3c-.5.067-1.017.1-1.55.1-3.733 0-6.917-1.317-9.55-3.95-2.633-2.633-3.95-5.8-3.95-9.5 0-3.733 1.317-6.917 3.95-9.55 2.633-2.633 5.817-3.95 9.55-3.95 3.7 0 6.867 1.317 9.5 3.95s3.95 5.817 3.95 9.55c0 .4-.017.817-.05 1.25l2.35 2.3z" fill="#FF5100"/><path d="M112 59.5v-5.8h-7l-1.5 1.5h5.55c.067 0 .133.033.2.1.033.033.05.083.05.15V57a.448.448 0 01-.05.2.444.444 0 01-.2.05h-5.55a2.716 2.716 0 01-1.7-.8 2.655 2.655 0 01-.8-1.95c0-.733.267-1.367.8-1.9.533-.5 1.15-.767 1.85-.8h6.15l2.2-2.2h-7.95c-1.567.033-2.9.517-4 1.45-1.1.967-1.65 2.133-1.65 3.5s.55 2.533 1.65 3.5c1.1.967 2.433 1.45 4 1.45H112zm4.8-9.9l-2.2 2.2h10.15c.333 0 .633.133.9.4.267.3.4.633.4 1 0 .4-.133.733-.4 1s-.583.4-.95.4h-10.35v4.9h2.9V57c0-.067.033-.117.1-.15.033-.067.083-.1.15-.1h5.3c.067 0 .117.033.15.1l2.65 2.65h3.8l-2.35-2.3a.448.448 0 01-.05-.2v-.7c0-.067.017-.1.05-.1 0-.067.033-.1.1-.1.333-.2.65-.433.95-.7.633-.667.95-1.483.95-2.45 0-.9-.317-1.683-.95-2.35-.667-.633-1.433-.967-2.3-1h-9zm27.95 8.45a5.59 5.59 0 001.05-1.15c.433-.7.65-1.483.65-2.35 0-1.367-.567-2.533-1.7-3.5-1.1-.933-2.4-1.417-3.9-1.45h-4.5c-1.533.033-2.85.517-3.95 1.45-1.1.967-1.65 2.133-1.65 3.5 0 .867.217 1.65.65 2.35.233.4.567.783 1 1.15 1.1.933 2.417 1.417 3.95 1.45h4.5c1.5-.033 2.8-.517 3.9-1.45zm-2-5.4c.533.533.8 1.167.8 1.9 0 .767-.267 1.417-.8 1.95-.5.467-1.067.733-1.7.8h-4.9a2.716 2.716 0 01-1.7-.8 2.655 2.655 0 01-.8-1.95c0-.733.267-1.367.8-1.9.5-.533 1.1-.8 1.8-.8h4.65c.7 0 1.317.267 1.85.8zm19.9 1.8V49.6h-2.95v5.55c-.033.6-.317 1.133-.85 1.6a3.146 3.146 0 01-1.65.65h-3.25c-.667-.067-1.233-.283-1.7-.65-.533-.467-.8-1.017-.8-1.65v-5.5h-2.85v4.95c0 .867.217 1.65.65 2.35.267.4.6.783 1 1.15a5.896 5.896 0 002.1 1.15c.567.2 1.2.3 1.9.3h2.8c1.5-.033 2.8-.517 3.9-1.45A5.59 5.59 0 00162 56.9c.433-.7.65-1.483.65-2.35v-.1zm12.5-2.65c.367 0 .683.133.95.4.267.3.4.633.4 1 0 .4-.133.733-.4 1-.3.267-.633.4-1 .4H165v4.9h2.95V57c0-.067.017-.117.05-.15.067-.067.133-.1.2-.1h7.15c1.1.033 2.017-.267 2.75-.9.7-.633 1.05-1.467 1.05-2.5s-.367-1.917-1.1-2.65c-.7-.7-1.533-1.067-2.5-1.1h-7.9l-2.25 2.2h9.75z" fill="#fff"/></svg>