<svg viewBox="0 0 30 30" fill="none" xmlns="http://www.w3.org/2000/svg"><path d="M10.605 12.363h8.79v3.516h-8.79v-3.516zm8.79-5.273h-.88a.88.88 0 01-.878-.88v-.878h1.758V3.574h-8.79v1.758h1.758v.879a.88.88 0 01-.879.879h-.879v3.515h8.79V7.09z" fill="#C4C4C4"/><path d="M22.91 11.484c0 4.362-3.548 7.91-7.91 7.91s-7.91-3.548-7.91-7.91c0-1.14.23-1.83.372-2.636H0v5.273h2.097c.337 1.643.99 3.217 1.918 4.62L2.57 20.184l3.728 3.729 1.445-1.444a13.183 13.183 0 004.62 1.917v2.039h5.273v-2.039a13.18 13.18 0 004.62-1.917l1.444 1.444 3.728-3.729-1.444-1.444a13.183 13.183 0 001.918-4.62H30V8.848h-7.462c.133.756.372 1.486.372 2.636z" fill="#C4C4C4"/></svg>