<svg viewBox="0 0 30 30" fill="none" xmlns="http://www.w3.org/2000/svg"><path d="M22.5 0h-15A2.502 2.502 0 005 2.5v5.625c0 .345.28.625.625.625h18.75c.346 0 .625-.28.625-.625V2.5C25 1.121 23.879 0 22.5 0zM11.875 6.25h-3.75a.624.624 0 01-.442-1.067l.625-.625A.625.625 0 019.375 5h2.5a.625.625 0 110 1.25zm12.5 3.5H5.625a.625.625 0 00-.625.625V26c0 1.379 1.121 2.5 2.5 2.5v.625c0 .346.28.625.625.625h1.25c.345 0 .625-.28.625-.625V28.5h10v.625c0 .346.28.625.625.625h1.25c.346 0 .625-.28.625-.625V28.5c1.379 0 2.5-1.121 2.5-2.5V10.375a.625.625 0 00-.625-.625zm-12.5 3.75h-3.75a.624.624 0 01-.442-1.067l.625-.625a.625.625 0 011.067.442h2.5a.625.625 0 110 1.25z" fill="#FF5100"/></svg>