<svg viewBox="0 0 30 30" fill="none" xmlns="http://www.w3.org/2000/svg"><g clip-path="url(#clip0)"><path d="M30 18.41v-1.364a.681.681 0 00-.682-.682h-5.454v-4.091h.681a2.73 2.73 0 002.728-2.728V2.727A2.73 2.73 0 0024.546 0H2.727A2.73 2.73 0 000 2.727v4.091a2.73 2.73 0 002.727 2.728h.784c.248 1.697.58 4.414.58 6.818 0 3.316-.518 6.38-.897 8.181h-.467A2.73 2.73 0 000 27.274v2.045c0 .377.305.682.682.682h28.636a.682.682 0 00.682-.682v-2.045a2.73 2.73 0 00-2.727-2.727h-.474A7.492 7.492 0 0030 18.409zM8.182 19.772a1.365 1.365 0 01-1.364-1.364 1.364 1.364 0 111.364 1.364zm0-4.773a1.365 1.365 0 01-1.364-1.364 1.365 1.365 0 111.364 1.364zm1.363-8.864a.681.681 0 01-.681.682H6.136a2.048 2.048 0 01-2.045-2.045c0-1.128.917-2.046 2.045-2.046h2.728a.68.68 0 01.681.682v2.727zm1.364 0V3.41c0-.377.305-.682.682-.682h2.727c1.128 0 2.046.918 2.046 2.046a2.048 2.048 0 01-2.046 2.045h-2.727a.681.681 0 01-.682-.682zM22.5 16.364h-6.818a.681.681 0 00-.682.681v1.364a7.492 7.492 0 003.201 6.137h-4.565v-15h5.455a2.73 2.73 0 002.727 2.727h.682v4.09z" fill="#C4C4C4"/></g><defs><clipPath id="clip0"><path fill="#fff" d="M0 0h30v30H0z"/></clipPath></defs></svg>