<svg viewBox="0 0 30 30" fill="none" xmlns="http://www.w3.org/2000/svg"><path d="M24.702 0H5.298a3.368 3.368 0 00-3.369 3.369V26.63A3.368 3.368 0 005.298 30h19.404a3.369 3.369 0 003.369-3.369V3.37A3.369 3.369 0 0024.7 0zm-3.067 2.137a1.57 1.57 0 11.001 3.141 1.57 1.57 0 010-3.141zm-5.027 0a1.571 1.571 0 110 3.142 1.571 1.571 0 010-3.142zM15 26.482a7.886 7.886 0 01-7.886-7.887 7.886 7.886 0 1115.772 0A7.887 7.887 0 0115 26.482zm9.013-17.81H5.988a1.005 1.005 0 110-2.011h18.025a1.005 1.005 0 110 2.011z" fill="#C4C4C4"/><path d="M15 12.896a5.706 5.706 0 00-5.7 5.7c0 3.142 2.557 5.7 5.7 5.7 3.143 0 5.7-2.558 5.7-5.7 0-3.144-2.557-5.7-5.7-5.7zm0 1.76a3.945 3.945 0 013.94 3.94c0 .557-.12 1.087-.33 1.567-1.088-.233-2.058-.182-3.334.008-.65.097-1.46-.07-2.035-.388-.87-.481-1.476-.788-2.15-.863-.008-.109-.031-.213-.031-.325a3.945 3.945 0 013.94-3.94z" fill="#C4C4C4"/></svg>