<svg viewBox="0 0 30 30" fill="none" xmlns="http://www.w3.org/2000/svg"><path d="M21.579 18.684h1.053a2.105 2.105 0 000-4.21h-1.053V13.42h-8.421v5.263a4.21 4.21 0 108.42 0zm7.368-11.053h-4.21v.527h-3.684V9.21h3.684v.527h4.21a1.053 1.053 0 000-2.106zM16.842 9.737h1.053v1.052h-1.053V9.737zm12.632 15.789H0v1.58a2.635 2.635 0 002.632 2.63h24.21a2.635 2.635 0 002.632-2.63v-1.58zm-2.632 3.158H2.632a1.58 1.58 0 01-1.58-1.579.526.526 0 011.053 0c0 .291.236.527.527.527h24.21c.29 0 .526-.236.526-.527a.526.526 0 011.053 0 1.58 1.58 0 01-1.579 1.58zM14.21 7.105a1.58 1.58 0 001.58 1.58h3.157a1.58 1.58 0 001.58-1.58V6.58H14.21v.526zM11.579 23.42h15.263v1.053H11.58v-1.052zm-6.316-6.84a1.579 1.579 0 100 3.157 1.579 1.579 0 000-3.158zm0 2.104a.526.526 0 110-1.052.526.526 0 010 1.052zM22.105 3.421h.527a.526.526 0 000-1.052h-.527a.526.526 0 100 1.052z" fill="#C4C4C4"/><path d="M6.842 10.79H3.684a.526.526 0 00-.526.526v9.473c0 .291.236.527.526.527h3.158c.29 0 .526-.236.526-.526v-9.474a.526.526 0 00-.526-.526zM5.263 15a1.58 1.58 0 110-3.158 1.58 1.58 0 010 3.158z" fill="#C4C4C4"/><path d="M5.79 13.42a.526.526 0 11-1.053 0 .526.526 0 011.052 0z" fill="#C4C4C4"/><path d="M21.053.263H0v24.21h10.526V6.054c0-.291.236-.527.527-.527h13.684v-1.58A3.688 3.688 0 0021.053.263zm-20 2.632c0-.29.235-.527.526-.527h.526a.526.526 0 010 1.053H1.58a.526.526 0 01-.526-.526zM8.42 20.79c0 .872-.707 1.578-1.579 1.578H3.684a1.579 1.579 0 01-1.579-1.578v-9.474c0-.872.707-1.58 1.58-1.58h3.157a1.58 1.58 0 011.579 1.58v9.473zM20.526 3.42H3.684a.526.526 0 010-1.053h16.842a.526.526 0 110 1.053z" fill="#C4C4C4"/></svg>