<svg viewBox="0 0 30 30" fill="none" xmlns="http://www.w3.org/2000/svg"><g clip-path="url(#clip0)"><path d="M25.456 0H4.544a2.552 2.552 0 00-2.552 2.552v2.614c0 .275.223.498.498.498h22.2c.299 0 .56.225.578.523a.56.56 0 01-.558.597H2.49a.498.498 0 00-.498.498v20.166A2.552 2.552 0 004.544 30h20.912a2.552 2.552 0 002.552-2.552V2.552A2.552 2.552 0 0025.456 0zM9.834 4.046h-.871a.56.56 0 110-1.12h.871a.56.56 0 110 1.12zm6.784 0h-3.236a.56.56 0 110-1.12h3.236a.56.56 0 110 1.12zm4.42 0h-.872a.56.56 0 110-1.12h.871a.56.56 0 110 1.12zm-2.86 4.7a.56.56 0 01.755.241l1.108 2.146a.56.56 0 11-.995.514l-1.108-2.146a.56.56 0 01.24-.754zm-3.738.777a.56.56 0 111.12 0v2.987a.56.56 0 01-1.12 0V9.523zm-4.543 1.61l1.108-2.146a.56.56 0 11.995.514l-1.108 2.146a.56.56 0 01-.995-.514zm.746 15.568a5.483 5.483 0 01-5.477-5.477 5.483 5.483 0 015.477-5.477 5.483 5.483 0 015.477 5.477 5.483 5.483 0 01-5.477 5.477zm6.158-.303a.56.56 0 01-.369-1.058 4.361 4.361 0 002.925-4.116 4.361 4.361 0 00-2.925-4.116.56.56 0 11.369-1.058 5.482 5.482 0 013.676 5.174 5.482 5.482 0 01-3.676 5.174zm4.357 0a.56.56 0 01-.369-1.058 4.361 4.361 0 002.925-4.116 4.361 4.361 0 00-2.925-4.116.56.56 0 11.368-1.058 5.482 5.482 0 013.677 5.174 5.482 5.482 0 01-3.677 5.174z" fill="#C4C4C4"/></g><defs><clipPath id="clip0"><path fill="#fff" d="M0 0h30v30H0z"/></clipPath></defs></svg>