<svg viewBox="0 0 30 30" fill="none" xmlns="http://www.w3.org/2000/svg"><path d="M24.375 0H5.625a2.64 2.64 0 00-2.637 2.637V5.96h24.024V2.637A2.64 2.64 0 0024.375 0zm-6.152 3.867a.879.879 0 110-1.758.879.879 0 010 1.758zm3.515 0a.879.879 0 110-1.758.879.879 0 010 1.758zM2.988 7.719v19.644A2.64 2.64 0 005.625 30h18.75a2.64 2.64 0 002.637-2.637V7.72H2.988zM15 25.605c-4.2 0-7.617-3.417-7.617-7.617S10.8 10.371 15 10.371s7.617 3.417 7.617 7.617S19.2 25.605 15 25.605z" fill="#C4C4C4"/><path d="M15 13.887a4.106 4.106 0 00-4.102 4.101A4.106 4.106 0 0015 22.09a4.106 4.106 0 004.101-4.102A4.106 4.106 0 0015 13.887z" fill="#C4C4C4"/></svg>