<svg viewBox="0 0 30 30" fill="none" xmlns="http://www.w3.org/2000/svg"><g clip-path="url(#clip4)" fill="#C4C4C4"><path d="M21.136 12.273H8.864a.681.681 0 100 1.364h12.272a.681.681 0 100-1.364zm-9.063 3.608a.682.682 0 00-.964 0l-4.091 4.091a.681.681 0 10.964.964l4.091-4.09a.682.682 0 000-.965zm.4 2.728l-2.728 2.727a.682.682 0 10.964.964l2.728-2.727a.682.682 0 10-.964-.964z"/><path d="M27.273 0H2.727A2.73 2.73 0 000 2.727v24.546A2.73 2.73 0 002.727 30h24.546A2.73 2.73 0 0030 27.273V2.727A2.73 2.73 0 0027.273 0zM9.545 4.773c0-.377.305-.682.682-.682h9.546c.377 0 .682.305.682.682V7.5a.681.681 0 01-.682.682h-9.546a.681.681 0 01-.682-.682V4.773zM6.136 4.09c1.128 0 2.046.917 2.046 2.045a2.048 2.048 0 01-2.046 2.046 2.048 2.048 0 01-2.045-2.046c0-1.128.917-2.045 2.045-2.045zM25.91 25.227a.682.682 0 01-.682.682H4.773a.681.681 0 01-.682-.682v-15c0-.377.305-.682.682-.682h20.454c.377 0 .682.305.682.682v15zM23.864 8.182a2.048 2.048 0 01-2.046-2.046c0-1.128.918-2.045 2.046-2.045 1.128 0 2.045.917 2.045 2.045a2.048 2.048 0 01-2.045 2.046z"/></g><defs><clipPath id="clip4"><path fill="#fff" d="M0 0h30v30H0z"/></clipPath></defs></svg>