<svg viewBox="0 0 30 30" fill="none" xmlns="http://www.w3.org/2000/svg"><g clip-path="url(#clip3)" fill="#C4C4C4"><path d="M23.864 17.727h.585A2.723 2.723 0 0022.5 15.78v.585a.682.682 0 11-1.364 0v-.585c-.953.248-1.7.995-1.948 1.948h.585a.681.681 0 110 1.364h-.585c.248.954.995 1.7 1.948 1.949v-.585a.681.681 0 111.364 0v.585a2.723 2.723 0 001.949-1.949h-.585a.681.681 0 110-1.364zm-13.637 0h.585a2.723 2.723 0 00-1.948-1.948v.585a.681.681 0 11-1.364 0v-.585c-.954.248-1.7.995-1.949 1.948h.585a.681.681 0 110 1.364h-.585c.248.954.995 1.7 1.949 1.949v-.585a.681.681 0 111.364 0v.585a2.724 2.724 0 001.948-1.949h-.585a.681.681 0 110-1.364zm2.046 8.864l.001-.682h-.001v.682zm5.454 0l.002-.682h-.002v.682zm5.455 0l.001-.682h-.001v.682z"/><path d="M27.273 0H2.727A2.73 2.73 0 000 2.727v24.546A2.73 2.73 0 002.727 30h24.546A2.73 2.73 0 0030 27.273V2.727A2.73 2.73 0 0027.273 0zM4.09 7.5h.069A4.083 4.083 0 017.5 4.16v-.07a.681.681 0 111.364 0v.07a4.083 4.083 0 013.34 3.34h.069a.681.681 0 110 1.364h-.07a4.083 4.083 0 01-3.34 3.34v.069a.681.681 0 11-1.363 0v-.07a4.083 4.083 0 01-3.34-3.34h-.07a.681.681 0 110-1.363zm2.727 19.773a1.365 1.365 0 01-1.363-1.364 1.363 1.363 0 111.363 1.364zM8.864 22.5a.681.681 0 11-1.364 0v-.069a4.083 4.083 0 01-3.34-3.34h-.07a.681.681 0 110-1.364h.07a4.083 4.083 0 013.34-3.34v-.069a.681.681 0 111.364 0v.07a4.083 4.083 0 013.34 3.34h.069a.681.681 0 110 1.363h-.07a4.083 4.083 0 01-3.34 3.34v.069zm3.409 4.773a1.365 1.365 0 01-1.364-1.364 1.365 1.365 0 012.727 0c0 .752-.61 1.364-1.363 1.364zm5.454 0a1.365 1.365 0 01-1.363-1.364 1.363 1.363 0 111.363 1.364zm5.455 0a1.365 1.365 0 01-1.364-1.364 1.365 1.365 0 012.727 0c0 .752-.61 1.364-1.363 1.364zm2.727-8.182h-.069a4.083 4.083 0 01-3.34 3.34v.069a.681.681 0 11-1.364 0v-.069a4.083 4.083 0 01-3.34-3.34h-.069a.681.681 0 110-1.364h.07a4.083 4.083 0 013.34-3.34v-.069a.681.681 0 111.363 0v.07a4.083 4.083 0 013.34 3.34h.07a.681.681 0 110 1.363zm0-10.227h-.069a4.083 4.083 0 01-3.34 3.34v.069a.681.681 0 11-1.364 0v-.07a4.083 4.083 0 01-3.34-3.34h-.069a.681.681 0 110-1.363h.07a4.083 4.083 0 013.34-3.34v-.07a.681.681 0 111.363 0v.07a4.083 4.083 0 013.34 3.34h.07a.681.681 0 110 1.364z"/><path d="M6.818 26.591l.001-.682v.682zM23.864 7.5h.585a2.723 2.723 0 00-1.95-1.949v.585a.681.681 0 11-1.363 0v-.585c-.953.248-1.7.995-1.948 1.949h.585a.681.681 0 110 1.364h-.585c.248.953.995 1.7 1.948 1.948v-.585a.681.681 0 111.364 0v.585a2.724 2.724 0 001.949-1.948h-.585a.681.681 0 110-1.364zM6.136 8.864h-.585c.248.953.995 1.7 1.949 1.948v-.585a.681.681 0 111.364 0v.585a2.724 2.724 0 001.948-1.948h-.585a.681.681 0 110-1.364h.585a2.723 2.723 0 00-1.948-1.95v.585a.681.681 0 11-1.364 0V5.55c-.954.25-1.7.996-1.95 1.95h.585a.681.681 0 110 1.364z"/></g><defs><clipPath id="clip3"><path fill="#fff" d="M0 0h30v30H0z"/></clipPath></defs></svg>