<svg viewBox="0 0 30 30" fill="none" xmlns="http://www.w3.org/2000/svg"><g clip-path="url(#clip0)" fill="#C4C4C4"><path d="M12.273 5.455h-1.064a4.06 4.06 0 011.064 2.727 4.06 4.06 0 01-1.064 2.727h1.064A2.73 2.73 0 0015 8.182a2.73 2.73 0 00-2.727-2.727zM8.182 10.91a2.727 2.727 0 100-5.455 2.727 2.727 0 000 5.454zm0 10.908a2.727 2.727 0 100-5.454 2.727 2.727 0 000 5.454zm13.636 0a2.727 2.727 0 100-5.454 2.727 2.727 0 000 5.454z"/><path d="M27.273 0H2.727A2.73 2.73 0 000 2.727v24.546A2.73 2.73 0 002.727 30h24.546A2.73 2.73 0 0030 27.273V2.727A2.73 2.73 0 0027.273 0zM6.818 27.273a1.365 1.365 0 01-1.363-1.364 1.363 1.363 0 111.363 1.364zM4.091 19.09A4.095 4.095 0 018.18 15a4.095 4.095 0 014.092 4.09 4.095 4.095 0 01-4.091 4.092A4.095 4.095 0 014.09 19.09zm8.182 8.182a1.365 1.365 0 01-1.364-1.364 1.365 1.365 0 012.727 0c0 .752-.61 1.364-1.363 1.364zm0-15H8.182a4.095 4.095 0 01-4.092-4.09A4.095 4.095 0 018.18 4.09h4.092a4.095 4.095 0 014.09 4.09 4.095 4.095 0 01-4.09 4.092zm5.454 15a1.365 1.365 0 01-1.363-1.364 1.363 1.363 0 111.363 1.364zm5.455 0a1.365 1.365 0 01-1.364-1.364 1.365 1.365 0 012.727 0c0 .752-.61 1.364-1.363 1.364zm-1.364-4.091a4.095 4.095 0 01-4.09-4.091A4.095 4.095 0 0121.817 15a4.095 4.095 0 014.091 4.09 4.095 4.095 0 01-4.09 4.092zm0-10.91a4.095 4.095 0 01-4.09-4.09 4.095 4.095 0 014.09-4.091 4.095 4.095 0 014.091 4.09 4.095 4.095 0 01-4.09 4.092z"/><path d="M21.818 10.91a2.727 2.727 0 100-5.455 2.727 2.727 0 000 5.454z"/></g><defs><clipPath id="clip0"><path fill="#fff" d="M0 0h30v30H0z"/></clipPath></defs></svg>