<svg viewBox="0 0 30 30" fill="none" xmlns="http://www.w3.org/2000/svg"><path d="M19.375 11.25a.625.625 0 00-.625.625v5a.625.625 0 101.25 0v-5a.625.625 0 00-.625-.625zm-9.558.183a.625.625 0 00-.884 0l-2.5 2.5a.625.625 0 10.884.884l2.5-2.5a.625.625 0 000-.884zm.366 2.5l-1.25 1.25a.625.625 0 10.884.884l1.25-1.25a.625.625 0 10-.884-.884z" fill="#C4C4C4"/><path d="M27.5 3.75h-25A2.502 2.502 0 000 6.25v17.5c0 1.379 1.121 2.5 2.5 2.5h25c1.379 0 2.5-1.121 2.5-2.5V6.25c0-1.379-1.121-2.5-2.5-2.5zm-5 18.125c0 .345-.28.625-.625.625h-17.5a.625.625 0 01-.625-.625V8.125c0-.345.28-.625.625-.625h17.5c.346 0 .625.28.625.625v13.75zm4.375-.625h-1.25a.625.625 0 110-1.25h1.25a.625.625 0 110 1.25zm-.625-2.5a1.25 1.25 0 110-2.5 1.25 1.25 0 010 2.5zm0-3.75a1.25 1.25 0 110-2.5 1.25 1.25 0 010 2.5zm0-3.75a1.25 1.25 0 110-2.5 1.25 1.25 0 010 2.5z" fill="#C4C4C4"/></svg>