<svg width="210" height="60" viewBox="0 0 210 60" fill="none" xmlns="http://www.w3.org/2000/svg">
<path d="M51.1501 11.4C51.1168 11.3333 51.0668 11.3 51.0001 11.3C50.9334 11.3 50.8834 11.3167 50.8501 11.35L49.0001 12.65C48.3668 13.05 47.8001 12.9833 47.3001 12.45L44.9001 10.1C44.4001 9.6 44.3668 9.03333 44.8001 8.4L46.0501 6.6C46.0834 6.53333 46.1001 6.46667 46.1001 6.4C46.1001 6.33333 46.0668 6.28333 46.0001 6.25L42.8001 4.1H42.7501C42.7168 4.06667 42.6668 4.06667 42.6001 4.1C42.5334 4.1 42.4834 4.13333 42.4501 4.2L41.2501 6.05C40.8501 6.68333 40.3168 6.86667 39.6501 6.6L36.5501 5.3C35.8834 5 35.6168 4.5 35.7501 3.8L36.2501 1.6C36.2501 1.53333 36.2334 1.48333 36.2001 1.45C36.1668 1.38333 36.1168 1.35 36.0501 1.35L32.2501 0.6C32.2168 0.566667 32.1668 0.583333 32.1001 0.65C32.0334 0.683333 32.0001 0.733333 32.0001 0.8L31.6501 2.95C31.4834 3.68333 31.0334 4.05 30.3001 4.05H26.9501C26.2168 4.05 25.7834 3.68333 25.6501 2.95L25.3001 0.8C25.2668 0.733333 25.2334 0.683333 25.2001 0.65C25.1334 0.583333 25.0668 0.566667 25.0001 0.6L21.2501 1.35C21.1834 1.35 21.1334 1.38333 21.1001 1.45C21.0668 1.48333 21.0501 1.53333 21.0501 1.6L21.5501 3.8C21.6834 4.5 21.4168 5 20.7501 5.3L17.6501 6.6C16.9834 6.86667 16.4501 6.68333 16.0501 6.05H16.0001L14.8501 4.2C14.8168 4.13333 14.7668 4.1 14.7001 4.1C14.6334 4.06667 14.5668 4.06667 14.5001 4.1L11.3001 6.25C11.2334 6.28333 11.2001 6.33333 11.2001 6.4C11.2001 6.46667 11.2168 6.53333 11.2501 6.6L12.5501 8.4C12.9501 9.03333 12.8834 9.6 12.3501 10.1L10.0001 12.45C9.46676 12.9833 8.9001 13.05 8.3001 12.65L6.5001 11.35C6.43343 11.3167 6.36676 11.3 6.3001 11.3C6.23343 11.3333 6.18343 11.3667 6.1501 11.4L4.0501 14.6H4.0001C3.96676 14.6667 3.96676 14.7333 4.0001 14.8C4.0001 14.8667 4.03343 14.9167 4.1001 14.95L6.0001 16.1V16.15C6.6001 16.55 6.76676 17.0833 6.5001 17.75L5.2001 20.85C4.93343 21.5167 4.43343 21.7833 3.7001 21.65L1.5001 21.15C1.43343 21.15 1.38343 21.1667 1.3501 21.2C1.28343 21.2333 1.2501 21.2833 1.2501 21.35L0.500098 25.1C0.466764 25.1667 0.466764 25.2333 0.500098 25.3C0.533431 25.3333 0.600098 25.3667 0.700098 25.4L2.8501 25.75C3.58343 25.8833 3.9501 26.3167 3.9501 27.05V30.4C3.9501 31.1333 3.58343 31.5833 2.8501 31.75L0.700098 32.1C0.600098 32.1333 0.533431 32.1667 0.500098 32.2C0.466764 32.2667 0.466764 32.3333 0.500098 32.4L1.2501 36.15C1.2501 36.2167 1.28343 36.2667 1.3501 36.3C1.38343 36.3333 1.43343 36.35 1.5001 36.35L3.7001 35.85C4.4001 35.7167 4.9001 35.9833 5.2001 36.65L6.5001 39.75C6.76676 40.4167 6.58343 40.9667 5.9501 41.4L4.1001 42.55C4.03343 42.5833 4.0001 42.6333 4.0001 42.7C3.96676 42.7667 3.96676 42.8333 4.0001 42.9H4.0501L6.1501 46.1C6.18343 46.1333 6.23343 46.1667 6.3001 46.2H6.3501C6.38343 46.2 6.43343 46.1833 6.5001 46.15L8.3001 44.85C8.93343 44.45 9.5001 44.5 10.0001 45L12.3501 47.4C12.8834 47.9 12.9501 48.4667 12.5501 49.1L11.2501 50.9C11.2168 50.9333 11.2001 51 11.2001 51.1C11.2334 51.1333 11.2668 51.1667 11.3001 51.2V51.25L14.5001 53.35C14.5668 53.3833 14.6334 53.4 14.7001 53.4C14.7668 53.4 14.8168 53.3667 14.8501 53.3L16.0001 51.45V51.4C16.4001 50.8 16.9501 50.6333 17.6501 50.9L20.7501 52.2C21.4168 52.4667 21.6834 52.9667 21.5501 53.7L21.0501 55.85C21.0501 55.9167 21.0668 55.9833 21.1001 56.05C21.1334 56.1167 21.1834 56.15 21.2501 56.15L25.0001 56.9C25.0668 56.9 25.1334 56.8833 25.2001 56.85C25.2334 56.8167 25.2668 56.7667 25.3001 56.7L25.6501 54.5C25.7834 53.7667 26.2168 53.4 26.9501 53.4H30.3001C31.0334 53.4 31.4834 53.7667 31.6501 54.5L32.0001 56.7C32.0001 56.7667 32.0334 56.8167 32.1001 56.85C32.1668 56.8833 32.2168 56.9 32.2501 56.9H32.3001L36.0501 56.15C36.1168 56.15 36.1668 56.1167 36.2001 56.05C36.2334 55.9833 36.2501 55.9167 36.2501 55.85L35.7501 53.7C35.6168 52.9667 35.8834 52.4667 36.5501 52.2L39.0001 51.15C39.0668 51.1167 39.1168 51.0667 39.1501 51C39.1501 50.9333 39.1168 50.8667 39.0501 50.8L35.2001 46.9C35.1334 46.8333 35.0501 46.8167 34.9501 46.85C33.0168 47.4833 30.9668 47.8 28.8001 47.8C23.5001 47.8 18.9834 45.9333 15.2501 42.2C11.4834 38.4667 9.6001 33.95 9.6001 28.65C9.6001 23.3833 11.4834 18.8667 15.2501 15.1C18.9834 11.3667 23.5001 9.5 28.8001 9.5C34.0668 9.5 38.5668 11.3667 42.3001 15.1C46.0668 18.8667 47.9501 23.3833 47.9501 28.65C47.9501 30.75 47.6501 32.7167 47.0501 34.55C47.0501 34.65 47.0834 34.7333 47.1501 34.8L50.9501 38.6C50.9834 38.6667 51.0501 38.7 51.1501 38.7C51.2168 38.6667 51.2668 38.6167 51.3001 38.55L52.1001 36.65C52.3668 35.9833 52.8668 35.7167 53.6001 35.85L55.8001 36.35C55.8334 36.35 55.8834 36.3333 55.9501 36.3C56.0168 36.2667 56.0501 36.2167 56.0501 36.15L56.8001 32.4V32.35C56.8001 32.3167 56.7834 32.2667 56.7501 32.2C56.7168 32.1667 56.6668 32.1333 56.6001 32.1L54.4501 31.75C53.7168 31.5833 53.3501 31.1333 53.3501 30.4V27.05C53.3501 26.3167 53.7001 25.8833 54.4001 25.75H54.4501L56.6001 25.4C56.6668 25.3667 56.7168 25.3333 56.7501 25.3C56.7834 25.2333 56.8001 25.1667 56.8001 25.1L56.0501 21.35C56.0501 21.2833 56.0168 21.2333 55.9501 21.2C55.8834 21.1667 55.8334 21.15 55.8001 21.15L53.6001 21.65C52.8668 21.7833 52.3668 21.5167 52.1001 20.85L50.8001 17.75C50.5334 17.0833 50.7168 16.55 51.3501 16.15V16.1L53.2001 14.95C53.2334 14.9167 53.2668 14.8667 53.3001 14.8C53.3001 14.7333 53.2834 14.6667 53.2501 14.6L51.1501 11.4ZM112.95 0.5H101.4L87.1001 27.1C87.0668 27.1667 87.0168 27.2 86.9501 27.2C86.9168 27.2333 86.8668 27.2333 86.8001 27.2C86.7334 27.2 86.6834 27.1667 86.6501 27.1L72.3501 0.5H60.8001L80.9001 38C81.3001 38.7333 81.8001 39.4167 82.4001 40.05C82.4001 40.0833 82.4168 40.1 82.4501 40.1C82.7834 40.4333 83.1501 40.7333 83.5501 41C84.5501 41.6333 85.6668 41.95 86.9001 41.95C88.1001 41.95 89.2001 41.6333 90.2001 41C90.5668 40.7333 90.9334 40.4333 91.3001 40.1C91.3001 40.0667 91.3168 40.05 91.3501 40.05C91.9501 39.4167 92.4501 38.7333 92.8501 38L112.95 0.5ZM159.95 11.1C159.95 8.16667 158.917 5.66667 156.85 3.6C154.783 1.53333 152.283 0.5 149.35 0.5C149.283 0.5 149.233 0.5 149.2 0.5C149.167 0.5 149.133 0.5 149.1 0.5C148.667 0.5 148.25 0.5 147.85 0.5H116.9V10.55H147.4C148.167 10.55 148.817 10.8333 149.35 11.4C149.95 11.9667 150.25 12.6667 150.25 13.5C150.25 14.3 149.967 14.9833 149.4 15.55L149.35 15.6C148.783 16.1667 148.1 16.45 147.3 16.45H116.9V41.25H149.65C152.65 41.1833 155.217 40.0833 157.35 37.95C159.55 35.75 160.65 33.0833 160.65 29.95C160.65 26.85 159.55 24.1833 157.35 21.95C156.717 21.3167 156.05 20.7833 155.35 20.35C155.283 20.3167 155.233 20.2667 155.2 20.2C155.2 20.1667 155.2 20.1167 155.2 20.05C155.233 19.9833 155.267 19.95 155.3 19.95C155.833 19.55 156.35 19.1167 156.85 18.65C158.917 16.55 159.95 14.0333 159.95 11.1ZM127.25 31.15C127.183 31.15 127.117 31.1167 127.05 31.05C127.017 31.0167 127 30.9667 127 30.9V24.9C127 24.8333 127.017 24.7833 127.05 24.75C127.117 24.6833 127.183 24.65 127.25 24.65H147C147.9 24.65 148.667 24.9667 149.3 25.6C149.933 26.2333 150.25 27 150.25 27.9C150.25 28.8 149.933 29.5667 149.3 30.2C148.667 30.8333 147.9 31.15 147 31.15H127.25ZM209.25 10.55V0.5H162.05V10.55H179.95C180.017 10.55 180.083 10.5667 180.15 10.6C180.183 10.6667 180.2 10.7333 180.2 10.8V41.25H191.1V10.8C191.1 10.7333 191.133 10.6667 191.2 10.6C191.233 10.5667 191.283 10.55 191.35 10.55H209.25Z" fill="#232323"/>
<path d="M47.65 41.65C47.6167 41.65 47.5833 41.6333 47.55 41.6L35.4 29.5C35.3667 29.4667 35.35 29.4167 35.35 29.35C35.3167 29.3167 35.3167 29.2833 35.35 29.25C35.6167 28.35 35.75 27.3833 35.75 26.35C35.75 23.85 34.8667 21.7 33.1 19.9C31.3 18.1333 29.15 17.25 26.65 17.25C25.7833 17.25 24.9667 17.35 24.2 17.55L28.7 22.05C29.1667 22.55 29.4167 23.15 29.45 23.85C29.45 24.55 29.2 25.15 28.7 25.65V25.6L25.85 28.45C25.35 28.95 24.75 29.2 24.05 29.2C23.35 29.2 22.7667 28.95 22.3 28.45L17.8 23.95C17.6 24.7167 17.5 25.5167 17.5 26.35C17.5 28.8833 18.4 31.05 20.2 32.85C21.9667 34.6167 24.1167 35.5 26.65 35.5C27.5833 35.5 28.4667 35.3833 29.3 35.15C29.3333 35.15 29.3667 35.15 29.4 35.15C29.4333 35.15 29.4667 35.1667 29.5 35.2L41.75 47.5C41.7833 47.5333 41.8167 47.5667 41.85 47.6C41.85 47.6333 41.85 47.6667 41.85 47.7C41.5833 48.5667 41.45 49.45 41.45 50.35C41.45 52.8833 42.35 55.05 44.15 56.85C45.9167 58.6167 48.0667 59.5 50.6 59.5C51.4667 59.5 52.2833 59.4 53.05 59.2L48.55 54.7C48.05 54.2 47.8 53.6 47.8 52.9C47.8 52.2 48.05 51.6 48.55 51.1L51.35 48.35C51.85 47.85 52.45 47.6 53.15 47.6C53.85 47.6 54.45 47.85 54.95 48.35L59.45 52.8C59.65 52.0333 59.75 51.2167 59.75 50.35C59.75 47.85 58.85 45.7 57.05 43.9C55.25 42.1333 53.1 41.25 50.6 41.25C49.6 41.25 48.6667 41.3833 47.8 41.65C47.7333 41.6833 47.6833 41.6833 47.65 41.65Z" fill="white"/>
<path d="M47.65 41.65C47.6167 41.65 47.5833 41.6333 47.55 41.6L35.4 29.5C35.3667 29.4667 35.35 29.4167 35.35 29.35C35.3167 29.3167 35.3167 29.2833 35.35 29.25C35.6167 28.35 35.75 27.3833 35.75 26.35C35.75 23.85 34.8667 21.7 33.1 19.9C31.3 18.1333 29.15 17.25 26.65 17.25C25.7833 17.25 24.9667 17.35 24.2 17.55L28.7 22.05C29.1667 22.55 29.4167 23.15 29.45 23.85C29.45 24.55 29.2 25.15 28.7 25.65V25.6L25.85 28.45C25.35 28.95 24.75 29.2 24.05 29.2C23.35 29.2 22.7667 28.95 22.3 28.45L17.8 23.95C17.6 24.7167 17.5 25.5167 17.5 26.35C17.5 28.8833 18.4 31.05 20.2 32.85C21.9667 34.6167 24.1167 35.5 26.65 35.5C27.5833 35.5 28.4667 35.3833 29.3 35.15C29.3333 35.15 29.3667 35.15 29.4 35.15C29.4333 35.15 29.4667 35.1667 29.5 35.2L41.75 47.5C41.7833 47.5333 41.8167 47.5667 41.85 47.6C41.85 47.6333 41.85 47.6667 41.85 47.7C41.5833 48.5667 41.45 49.45 41.45 50.35C41.45 52.8833 42.35 55.05 44.15 56.85C45.9167 58.6167 48.0667 59.5 50.6 59.5C51.4667 59.5 52.2833 59.4 53.05 59.2L48.55 54.7C48.05 54.2 47.8 53.6 47.8 52.9C47.8 52.2 48.05 51.6 48.55 51.1L51.35 48.35C51.85 47.85 52.45 47.6 53.15 47.6C53.85 47.6 54.45 47.85 54.95 48.35L59.45 52.8C59.65 52.0333 59.75 51.2167 59.75 50.35C59.75 47.85 58.85 45.7 57.05 43.9C55.25 42.1333 53.1 41.25 50.6 41.25C49.6 41.25 48.6667 41.3833 47.8 41.65C47.7333 41.6833 47.6833 41.6833 47.65 41.65Z" fill="white"/>
<path d="M44.5001 32.2501C44.7334 31.1168 44.8501 29.9334 44.8501 28.7001C44.8501 24.2334 43.2668 20.4334 40.1001 17.3001C36.9668 14.1668 33.1834 12.6001 28.7501 12.6001C24.2834 12.6001 20.4834 14.1668 17.3501 17.3001C14.1834 20.4334 12.6001 24.2334 12.6001 28.7001C12.6001 33.1334 14.1834 36.9334 17.3501 40.1001C20.4834 43.2334 24.2834 44.8001 28.7501 44.8001C30.0834 44.8001 31.3668 44.6501 32.6001 44.3501L30.3001 42.0501C29.8001 42.1168 29.2834 42.1501 28.7501 42.1501C25.0168 42.1501 21.8334 40.8334 19.2001 38.2001C16.5668 35.5668 15.2501 32.4001 15.2501 28.7001C15.2501 24.9668 16.5668 21.7834 19.2001 19.1501C21.8334 16.5168 25.0168 15.2001 28.7501 15.2001C32.4501 15.2001 35.6168 16.5168 38.2501 19.1501C40.8834 21.7834 42.2001 24.9668 42.2001 28.7001C42.2001 29.1001 42.1834 29.5168 42.1501 29.9501L44.5001 32.2501Z" fill="#FF5100"/>
<path d="M112 59.5001V53.7001H105L103.5 55.2001H109.05C109.117 55.2001 109.183 55.2334 109.25 55.3001C109.283 55.3334 109.3 55.3834 109.3 55.4501V57.0001C109.3 57.0668 109.283 57.1334 109.25 57.2001C109.183 57.2334 109.117 57.2501 109.05 57.2501H103.65C103.617 57.2501 103.567 57.2501 103.5 57.2501C102.833 57.1834 102.267 56.9168 101.8 56.4501C101.267 55.9168 101 55.2668 101 54.5001C101 53.7668 101.267 53.1334 101.8 52.6001C102.333 52.1001 102.95 51.8334 103.65 51.8001H109.8L112 49.6001H104.05C102.483 49.6334 101.15 50.1168 100.05 51.0501C98.9499 52.0168 98.3999 53.1834 98.3999 54.5501C98.3999 55.9168 98.9499 57.0834 100.05 58.0501C101.15 59.0168 102.483 59.5001 104.05 59.5001H112Z" fill="white"/>
<path d="M116.8 49.6001L114.6 51.8001H124.75C125.083 51.8001 125.383 51.9334 125.65 52.2001C125.917 52.5001 126.05 52.8334 126.05 53.2001C126.05 53.6001 125.917 53.9334 125.65 54.2001C125.383 54.4668 125.067 54.6001 124.7 54.6001H114.35V59.5001H117.25V57.0001C117.25 56.9334 117.283 56.8834 117.35 56.8501C117.383 56.7834 117.433 56.7501 117.5 56.7501H122.8C122.867 56.7501 122.917 56.7834 122.95 56.8501L125.6 59.5001H129.4L127.05 57.2001C127.017 57.1334 127 57.0668 127 57.0001V56.3001C127 56.2334 127.017 56.2001 127.05 56.2001C127.05 56.1334 127.083 56.1001 127.15 56.1001C127.483 55.9001 127.8 55.6668 128.1 55.4001C128.733 54.7334 129.05 53.9168 129.05 52.9501C129.05 52.0501 128.733 51.2668 128.1 50.6001C127.433 49.9668 126.667 49.6334 125.8 49.6001H116.8Z" fill="white"/>
<path d="M144.75 58.0501C145.183 57.6834 145.533 57.3001 145.8 56.9001C146.233 56.2001 146.45 55.4168 146.45 54.5501C146.45 53.1834 145.883 52.0168 144.75 51.0501C143.65 50.1168 142.35 49.6334 140.85 49.6001H136.35C134.817 49.6334 133.5 50.1168 132.4 51.0501C131.3 52.0168 130.75 53.1834 130.75 54.5501C130.75 55.4168 130.967 56.2001 131.4 56.9001C131.633 57.3001 131.967 57.6834 132.4 58.0501C133.5 58.9834 134.817 59.4668 136.35 59.5001H140.85C142.35 59.4668 143.65 58.9834 144.75 58.0501ZM142.75 52.6501C143.283 53.1834 143.55 53.8168 143.55 54.5501C143.55 55.3168 143.283 55.9668 142.75 56.5001C142.25 56.9668 141.683 57.2334 141.05 57.3001C140.983 57.3001 140.933 57.3001 140.9 57.3001H136.3C136.233 57.3001 136.183 57.3001 136.15 57.3001C135.483 57.2334 134.917 56.9668 134.45 56.5001C133.917 55.9668 133.65 55.3168 133.65 54.5501C133.65 53.8168 133.917 53.1834 134.45 52.6501C134.95 52.1168 135.55 51.8501 136.25 51.8501H140.9C141.6 51.8501 142.217 52.1168 142.75 52.6501Z" fill="white"/>
<path d="M162.65 54.4501V49.6001H159.7V55.1501C159.667 55.7501 159.383 56.2834 158.85 56.7501C158.383 57.1168 157.833 57.3334 157.2 57.4001C157.133 57.4001 157.083 57.4001 157.05 57.4001H154.1C154.033 57.4001 153.983 57.4001 153.95 57.4001C153.283 57.3334 152.717 57.1168 152.25 56.7501C151.717 56.2834 151.45 55.7334 151.45 55.1001V49.6001H148.6V54.5501C148.6 55.4168 148.817 56.2001 149.25 56.9001C149.517 57.3001 149.85 57.6834 150.25 58.0501C150.883 58.5834 151.583 58.9668 152.35 59.2001C152.917 59.4001 153.55 59.5001 154.25 59.5001H157.05C158.55 59.4668 159.85 58.9834 160.95 58.0501C161.383 57.6834 161.733 57.3001 162 56.9001C162.433 56.2001 162.65 55.4168 162.65 54.5501C162.65 54.5168 162.65 54.4834 162.65 54.4501Z" fill="white"/>
<path d="M175.15 51.8001C175.517 51.8001 175.833 51.9334 176.1 52.2001C176.367 52.5001 176.5 52.8334 176.5 53.2001C176.5 53.6001 176.367 53.9334 176.1 54.2001C175.8 54.4668 175.467 54.6001 175.1 54.6001H165V59.5001H167.95V57.0001C167.95 56.9334 167.967 56.8834 168 56.8501C168.067 56.7834 168.133 56.7501 168.2 56.7501H175.35C176.45 56.7834 177.367 56.4834 178.1 55.8501C178.8 55.2168 179.15 54.3834 179.15 53.3501C179.15 52.3168 178.783 51.4334 178.05 50.7001C177.35 50.0001 176.517 49.6334 175.55 49.6001H167.65L165.4 51.8001H175.15Z" fill="white"/>
</svg>
